<?xml version="1.0" standalone="no"?>
<!DOCTYPE svg PUBLIC "-//W3C//DTD SVG 1.1//EN" "http://www.w3.org/Graphics/SVG/1.1/DTD/svg11.dtd" >
<svg xmlns="http://www.w3.org/2000/svg">
<metadata></metadata>
<defs>
<font id="motiva_sansregular" horiz-adv-x="1249" >
<font-face units-per-em="2048" ascent="1638" descent="-410" />
<missing-glyph horiz-adv-x="573" />
<glyph horiz-adv-x="2048" />
<glyph horiz-adv-x="2048" />
<glyph unicode="&#xd;" horiz-adv-x="2048" />
<glyph unicode=" "  horiz-adv-x="573" />
<glyph unicode="&#x09;" horiz-adv-x="573" />
<glyph unicode="&#xa0;" horiz-adv-x="573" />
<glyph unicode="!" horiz-adv-x="606" d="M154 127q0 74 43.5 113t105.5 39t106 -39.5t44 -112.5q0 -75 -44 -114.5t-106 -39.5t-105.5 39.5t-43.5 114.5zM178 1434h258l-39 -942h-180z" />
<glyph unicode="&#x22;" horiz-adv-x="833" d="M143 1540h215l-34 -467h-146zM475 1540h215l-35 -467h-145z" />
<glyph unicode="#" horiz-adv-x="1318" d="M82 430v164h262l37 289h-258v164h280l50 387h190l-49 -387h227l47 387h191l-47 -387h245v-164h-264l-35 -289h259v-164h-277l-51 -430h-193l52 430h-232l-53 -430h-193l54 430h-242zM537 594h229l35 289h-228z" />
<glyph unicode="$" horiz-adv-x="1355" d="M168 225l102 158q54 -51 148 -93.5t180 -56.5v383q-63 18 -114.5 37.5t-107 50.5t-93 67.5t-62 88.5t-24.5 113q0 147 109.5 245.5t291.5 118.5v203h172v-205q207 -29 360 -161l-116 -150q-109 102 -244 127v-381q67 -18 118 -36t109 -48.5t95.5 -66t62.5 -87.5t25 -114 q0 -143 -106 -243.5t-304 -123.5v-233h-172v231q-132 13 -250 63.5t-180 112.5zM408 985q0 -63 49 -101.5t141 -68.5v336q-88 -15 -139 -60t-51 -106zM770 238q96 18 144.5 61t48.5 94q0 70 -49.5 108.5t-143.5 67.5v-331z" />
<glyph unicode="%" horiz-adv-x="1843" d="M143 1087q0 86 25.5 151.5t70.5 103.5t101 56.5t121 18.5q136 0 221.5 -80.5t85.5 -249.5q0 -87 -24 -151.5t-67 -102.5t-97 -56.5t-119 -18.5t-121 18.5t-101 56.5t-70.5 103t-25.5 151zM287 0l1046 1434h219l-1046 -1434h-219zM309 1087q0 -85 40 -130.5t110 -45.5 q69 0 106 45t37 131t-37 131.5t-106 45.5q-70 0 -110 -46t-40 -131zM1024 305q0 86 25.5 151.5t70.5 103.5t100.5 56.5t120.5 18.5t119.5 -18.5t97.5 -56.5t67 -103.5t24 -151.5t-24 -151.5t-67 -103.5t-97.5 -56.5t-119.5 -18.5t-120.5 18.5t-100.5 56.5t-70.5 103.5 t-25.5 151.5zM1190 305q0 -85 39.5 -130.5t109.5 -45.5q69 0 106.5 45t37.5 131t-37.5 131t-106.5 45q-70 0 -109.5 -45.5t-39.5 -130.5z" />
<glyph unicode="&#x26;" horiz-adv-x="1607" d="M205 328q0 65 25 125t72 111t98 92t118 83q-93 104 -137.5 190.5t-44.5 170.5q0 90 34 160.5t92 113t130.5 64.5t155.5 22q79 0 148.5 -19t128 -58t92.5 -106t34 -155q0 -72 -24.5 -135.5t-70.5 -115.5t-96 -91t-118 -80l250 -268q91 125 180 305l188 -100 q-109 -230 -213 -363l258 -274h-282l-125 117q-171 -142 -398 -142q-219 0 -357 97.5t-138 255.5zM444 358q0 -90 66.5 -142t183.5 -52q138 0 262 115l-303 311q-101 -59 -155 -114t-54 -118zM555 1090q0 -51 37.5 -107t112.5 -135q109 67 168 128.5t59 133.5 q0 69 -50.5 114.5t-127.5 45.5q-83 0 -141 -49t-58 -131z" />
<glyph unicode="'" horiz-adv-x="481" d="M133 1540h215l-35 -467h-145z" />
<glyph unicode="(" horiz-adv-x="759" d="M143 705q0 101 15 196t40 170.5t57 144.5t68 121.5t72 97t68 74.5t57 51.5t40 31.5l15 10l99 -91l-3 -3q-16 -15 -30.5 -29.5t-50.5 -57.5t-65 -87t-65 -114.5t-60 -144t-41 -171t-17 -199.5q0 -110 18.5 -214.5t48 -183.5t65 -149.5t71 -119t65 -84t48.5 -52.5l18 -17 l-101 -90q-9 6 -24.5 17.5t-60.5 53.5t-85.5 90t-90.5 127.5t-86 166.5t-60.5 207t-24.5 248z" />
<glyph unicode=")" horiz-adv-x="759" d="M143 -115q13 12 24.5 22t48.5 52.5t66.5 85.5t68.5 116t65 149.5t44.5 180.5t18.5 214q0 109 -18 212t-45.5 179.5t-64 146.5t-69 114.5t-66.5 82t-49 51.5t-24 20l103 91q9 -6 24.5 -17t60.5 -51.5t85.5 -87.5t90.5 -125t86 -164t60.5 -205t24.5 -247t-24 -247.5 t-62 -208t-84 -165.5t-92 -128.5t-84 -89t-62 -54.5l-24 -17z" />
<glyph unicode="*" horiz-adv-x="933" d="M174 1163l170 82l-170 84l76 129l156 -106l-15 188h150l-15 -188l158 106l76 -129l-170 -84l170 -82l-76 -129l-158 105l15 -187h-150l15 187l-156 -105z" />
<glyph unicode="+" horiz-adv-x="1464" d="M223 612v191h414v434h190v-434h414v-191h-414v-434h-190v434h-414z" />
<glyph unicode="," horiz-adv-x="563" d="M133 121q0 71 41 108t100 37q64 0 110 -44.5t46 -115.5q0 -203 -225 -335q0 -1 -17.5 15.5t-35.5 33.5l-17 16q4 4 11 10t25.5 24.5t32.5 35.5t27 38.5t15 37.5q-44 2 -78.5 39.5t-34.5 99.5z" />
<glyph unicode="-" horiz-adv-x="925" d="M164 508v190h598v-190h-598z" />
<glyph unicode="." horiz-adv-x="565" d="M133 127q0 73 44 112.5t106 39.5t105.5 -39t43.5 -113q0 -75 -43.5 -114.5t-105.5 -39.5t-106 39.5t-44 114.5z" />
<glyph unicode="/" horiz-adv-x="1224" d="M145 0l754 1434h205l-752 -1434h-207z" />
<glyph unicode="0" horiz-adv-x="1517" d="M133 721q0 151 32.5 274t90.5 208t138.5 143t174 85t199.5 27q133 0 243.5 -43.5t194.5 -131t131 -231t47 -331.5q0 -189 -47 -333.5t-131 -233.5t-194.5 -134t-243.5 -45t-246.5 45t-201 133.5t-137.5 234t-50 333.5zM375 721q0 -272 99 -412.5t294 -140.5 q193 0 284 140t91 413q0 271 -91 408t-284 137q-195 0 -294 -139t-99 -406z" />
<glyph unicode="1" horiz-adv-x="858" d="M23 1102l423 332h162v-1434h-233v1112l-232 -170z" />
<glyph unicode="2" horiz-adv-x="1314" d="M141 1274q219 184 484 184q237 0 377.5 -119.5t140.5 -310.5q0 -89 -40 -184.5t-100 -176.5t-151.5 -171t-172 -156.5t-183.5 -144.5h686v-195h-1002v188q177 137 302 244.5t224.5 213t148 196t48.5 170.5q0 122 -72.5 188t-205.5 66q-107 0 -203 -41.5t-160 -100.5z" />
<glyph unicode="3" horiz-adv-x="1353" d="M133 162l123 153q194 -147 385 -147q86 0 152.5 22.5t106 60.5t59.5 83.5t20 95.5q0 238 -344 238h-135v192h102q147 0 231.5 55t84.5 156q0 85 -66 140t-203 55q-166 0 -344 -154l-129 141q220 205 490 205q236 0 364.5 -103t128.5 -251q0 -107 -66.5 -194.5 t-172.5 -121.5q130 -28 215.5 -122t85.5 -234q0 -200 -159.5 -328.5t-410.5 -128.5q-283 0 -518 187z" />
<glyph unicode="4" horiz-adv-x="1396" d="M133 377v188l758 873h174v-867h209v-194h-209v-377h-227v377h-705zM401 571h437v508z" />
<glyph unicode="5" horiz-adv-x="1304" d="M133 137l115 158q7 -6 20 -15t53 -32.5t79.5 -41.5t94.5 -33t103 -15q160 0 246 94t86 242q0 159 -74.5 237t-208.5 78q-101 0 -174.5 -45t-114.5 -98h-145v768h860v-195h-639v-338q54 34 130 55t143 21q92 0 174 -28.5t147.5 -83.5t104 -146.5t38.5 -208.5 q0 -150 -63.5 -270t-190 -192.5t-296.5 -72.5q-297 0 -488 162z" />
<glyph unicode="6" horiz-adv-x="1382" d="M133 682q0 776 658 776q136 0 231 -36t195 -107l-115 -154q-141 105 -297 105q-94 0 -169 -27.5t-134.5 -86t-92 -159.5t-32.5 -239q172 149 401 149q69 0 135 -17t127 -54t107.5 -89.5t74 -130.5t27.5 -170q0 -139 -72 -247t-189 -164t-255 -56q-297 0 -448.5 176.5 t-151.5 530.5zM387 549q0 -183 91.5 -282t238.5 -99q139 0 215 73.5t76 200.5q0 122 -65.5 194.5t-178.5 72.5q-120 0 -225.5 -47t-151.5 -113z" />
<glyph unicode="7" horiz-adv-x="1265" d="M133 1245v193h1000v-201l-582 -1237h-242l596 1245h-772z" />
<glyph unicode="8" horiz-adv-x="1349" d="M133 403q0 285 285 371q-101 29 -175.5 109t-74.5 186q0 170 142.5 279.5t361.5 109.5q217 0 359.5 -105.5t142.5 -260.5q0 -124 -69.5 -207t-174.5 -111q287 -86 287 -371q0 -81 -39.5 -158t-109 -137t-173.5 -96.5t-223 -36.5q-123 0 -226.5 36.5t-170.5 97t-104.5 137 t-37.5 157.5zM369 428q0 -113 77.5 -186.5t225.5 -73.5q147 0 224 73.5t77 186.5q0 111 -76.5 177.5t-224.5 66.5t-225.5 -67t-77.5 -177zM410 1067q0 -99 74 -151t188 -52t188 52t74 151q0 93 -67 146t-195 53t-195 -53t-67 -146z" />
<glyph unicode="9" horiz-adv-x="1382" d="M133 991q0 139 72 247t189 164t255 56q600 0 600 -706q0 -777 -657 -777q-136 0 -231 36.5t-195 107.5l115 153q140 -104 297 -104q94 0 169 27.5t134.5 86t92 159.5t32.5 239q-173 -150 -402 -150q-69 0 -135 17t-127 54t-107.5 89.5t-74 130.5t-27.5 170zM375 991 q0 -122 65 -194t178 -72q120 0 225.5 47t151.5 113q0 183 -91 282t-238 99q-139 0 -215 -74t-76 -201z" />
<glyph unicode=":" horiz-adv-x="559" d="M133 125q0 73 43 111t105 38t103.5 -37.5t41.5 -111.5t-42 -113t-103 -39q-62 0 -105 39t-43 113zM133 948q0 72 43 111t105 39q61 0 103 -38.5t42 -111.5q0 -75 -41.5 -112t-103.5 -37q-63 0 -105.5 37t-42.5 112z" />
<glyph unicode=";" horiz-adv-x="563" d="M133 121q0 -62 34.5 -99.5t78.5 -39.5q-4 -25 -31.5 -61.5t-53.5 -60.5l-26 -24q4 -4 11.5 -11t23 -21.5t25.5 -24t10 -8.5q225 132 225 335q0 71 -46 115.5t-110 44.5q-59 0 -100 -37t-41 -108zM133 948q0 72 43.5 111t102.5 39q62 0 105.5 -39t43.5 -111 q0 -74 -43 -111.5t-106 -37.5q-60 0 -103 37.5t-43 111.5z" />
<glyph unicode="&#x3c;" horiz-adv-x="1153" d="M129 643v133l754 467q19 -33 45.5 -75t40.5 -66l-633 -395q116 -70 395 -248l236 -146q-18 -31 -46 -75.5t-40 -65.5z" />
<glyph unicode="=" horiz-adv-x="1380" d="M213 371v178h952v-178h-952zM213 752v180h952v-180h-952z" />
<glyph unicode="&#x3e;" horiz-adv-x="1153" d="M129 313l633 394l-633 395l86 141l752 -469v-131l-752 -471z" />
<glyph unicode="?" horiz-adv-x="1124" d="M84 1305q193 155 432 155q203 0 334 -96.5t131 -239.5q0 -62 -21 -112t-55 -85t-75.5 -67.5t-82.5 -68.5t-75 -78.5t-55 -107.5t-21 -146h-223q0 90 20.5 166.5t53 129t72 97t79 78.5t72 64.5t53 65t20.5 70.5q0 58 -62.5 97t-156.5 39q-105 0 -183 -31.5t-148 -93.5z M334 133q0 77 44.5 115.5t108.5 38.5t108 -38.5t44 -115.5t-44 -117.5t-108 -40.5t-108.5 40.5t-44.5 117.5z" />
<glyph unicode="@" horiz-adv-x="2039" d="M178 436q0 178 78.5 340.5t211 280.5t316.5 188t387 70q177 0 322.5 -56t238 -149.5t143 -213t50.5 -249.5q0 -73 -18 -149.5t-58.5 -152t-97.5 -134t-144 -95t-190 -36.5q-43 0 -94.5 22.5t-82.5 45.5l-30 22q-124 -90 -254 -90q-60 0 -116 21t-102 61t-73.5 107 t-27.5 151q0 107 42.5 193.5t115.5 141t167.5 83t202.5 28.5q155 0 250 -49l-72 -538q18 -38 40 -51t59 -13q136 0 208 113.5t72 314.5q0 106 -34.5 197t-100.5 161t-171.5 110t-239.5 40q-118 0 -233 -31t-216.5 -94t-179 -150.5t-123 -209t-45.5 -260.5q0 -146 47.5 -254 t136.5 -173.5t209 -97t272 -31.5q154 0 328 37l25 -155q-230 -43 -371 -43q-90 0 -173 9.5t-169.5 33t-159 60.5t-138 96t-110.5 135t-71.5 181.5t-26.5 231.5zM827 440q0 -99 50.5 -151.5t130.5 -52.5q34 0 74.5 20t64.5 40l24 19l56 412h-80q-86 0 -150.5 -26t-100 -69.5 t-52.5 -91.5t-17 -100z" />
<glyph unicode="A" horiz-adv-x="1454" d="M82 0l534 1434h222l534 -1434h-258l-100 293h-594l-98 -293h-240zM487 487h459l-229 674z" />
<glyph unicode="B" horiz-adv-x="1300" d="M164 0v1434h450q234 0 352.5 -95.5t118.5 -271.5q0 -99 -59.5 -176t-132.5 -103q31 -3 68.5 -18t80 -46t77 -73t57 -105t22.5 -136q0 -106 -41 -187t-112.5 -128.5t-159 -71t-189.5 -23.5h-532zM391 195h285q138 0 209 57t71 154q0 227 -297 227h-268v-438zM391 827h201 q126 0 200 59.5t74 162.5q0 190 -280 190h-195v-412z" />
<glyph unicode="C" horiz-adv-x="1351" d="M102 719q0 150 36 273.5t97.5 209t146.5 144t181.5 85.5t202.5 27q75 0 144 -13.5t116.5 -31.5t95.5 -46.5t72.5 -47.5t54.5 -45l-121 -150q-65 59 -160 100.5t-202 41.5q-211 0 -316.5 -140t-105.5 -407q0 -254 116.5 -402.5t305.5 -148.5q214 0 389 160l119 -160 q-222 -193 -508 -193q-134 0 -251 45t-210.5 133t-148 234t-54.5 332z" />
<glyph unicode="D" horiz-adv-x="1466" d="M143 0v1434h484q107 0 205.5 -23.5t189 -77t156.5 -133.5t105.5 -201t39.5 -270t-39.5 -272.5t-106 -207t-156.5 -140.5t-189 -83t-205 -26h-484zM371 195h223q228 0 357.5 137t129.5 397q0 257 -128.5 383.5t-358.5 126.5h-223v-1044z" />
<glyph unicode="E" horiz-adv-x="1234" d="M174 0v1434h928v-195h-701v-414h621v-194h-621v-436h701v-195h-928z" />
<glyph unicode="F" horiz-adv-x="1101" d="M143 -2v1434h887v-197h-659v-432h579v-195h-579v-610h-228z" />
<glyph unicode="G" horiz-adv-x="1517" d="M143 719q0 150 37 273.5t101.5 209t153 144t189.5 85.5t214 27q277 0 489 -184l-119 -160q-81 74 -164.5 113t-199.5 39q-229 0 -344 -140t-115 -407t107 -409t315 -142q60 0 116.5 10.5t95 26t68.5 31t44 26.5l14 10v316h-336v194h563v-618q-8 -8 -22.5 -20.5t-67.5 -45 t-113.5 -57.5t-160 -45.5t-207.5 -20.5q-106 0 -202 27.5t-180 87t-145 145.5t-96 210t-35 274z" />
<glyph unicode="H" horiz-adv-x="1441" d="M143 0v1434h228v-607h700v607h227v-1434h-227v633h-700v-633h-228z" />
<glyph unicode="I" horiz-adv-x="636" d="M205 0v1434h227v-1434h-227z" />
<glyph unicode="J" horiz-adv-x="999" d="M84 0l16 184q56 -16 117 -16q71 0 121 7t96 27.5t73.5 56t43.5 94t16 139.5v942h228v-971q0 -117 -28 -204.5t-74.5 -141t-116 -86t-142.5 -44.5t-164 -12q-55 0 -101.5 6.5t-65.5 12.5z" />
<glyph unicode="K" horiz-adv-x="1423" d="M205 0v1434h227v-615l557 615h287l-643 -680l688 -754h-297l-557 610l-35 -30v-580h-227z" />
<glyph unicode="L" horiz-adv-x="1177" d="M174 0v1434h227v-1239h654v-195h-881z" />
<glyph unicode="M" horiz-adv-x="1792" d="M143 0v1434h203l559 -1112l541 1112h209v-1434h-228v907l-477 -907h-112l-476 907v-907h-219z" />
<glyph unicode="N" horiz-adv-x="1466" d="M150 0v1434h190l756 -1031v1031h227v-1434h-197l-757 1026v-1026h-219z" />
<glyph unicode="O" horiz-adv-x="1640" d="M123 719q0 149 39.5 273.5t106 209.5t156.5 143.5t189.5 85.5t206.5 27q106 0 205.5 -27t189.5 -85.5t156.5 -143.5t106 -209.5t39.5 -273.5t-39.5 -274t-106 -210.5t-156.5 -145t-189.5 -87t-205.5 -27.5q-107 0 -206.5 27.5t-189.5 87t-156.5 145t-106 210.5t-39.5 274 zM365 721q0 -260 120.5 -406.5t327.5 -146.5q214 0 338.5 144.5t124.5 408.5q0 260 -122.5 402.5t-332.5 142.5q-212 0 -334 -142t-122 -403z" />
<glyph unicode="P" horiz-adv-x="1169" d="M174 0v1434h434q260 0 385 -118.5t125 -326.5q0 -92 -31 -171.5t-92.5 -142t-164.5 -98.5t-236 -36h-193v-541h-227zM401 735h193q145 0 214 67.5t69 203.5q0 114 -76.5 173.5t-206.5 59.5h-193v-504z" />
<glyph unicode="Q" horiz-adv-x="1681" d="M143 719q0 149 39.5 273.5t106.5 209.5t157 143.5t189.5 85.5t206.5 27q106 0 205.5 -27t189 -85.5t156 -143.5t106 -209.5t39.5 -273.5q0 -254 -105.5 -425t-279.5 -251l324 -143l-105 -185l-530 260q-107 0 -206.5 27.5t-189.5 87t-157 145t-106.5 210.5t-39.5 274z M385 719q0 -261 122 -406t331 -145q94 0 171 30t129.5 81.5t88.5 122.5t52.5 150.5t16.5 166.5q0 261 -122 404t-332 143q-212 0 -334.5 -143t-122.5 -404z" />
<glyph unicode="R" horiz-adv-x="1308" d="M164 0v1434h502q510 0 510 -439q0 -135 -78 -235t-205 -154l364 -606h-256l-325 545h-285v-545h-227zM391 739h246q149 0 229 76t80 180q0 119 -75 181.5t-224 62.5h-256v-500z" />
<glyph unicode="S" horiz-adv-x="1169" d="M86 131l90 178q66 -54 190 -97.5t209 -43.5q147 0 215 60.5t68 154.5q0 57 -40.5 101.5t-105 75.5t-142.5 60.5t-156.5 66t-143 81.5t-105 117t-40.5 164q0 182 132.5 295.5t332.5 113.5q266 0 452 -143l-100 -174q-161 125 -348 125q-121 0 -182.5 -53.5t-61.5 -145.5 q0 -56 41 -101t106.5 -76.5t144.5 -62t158 -68t144.5 -83t106.5 -117t41 -162.5q0 -179 -138 -300.5t-370 -121.5q-139 0 -282 48t-216 108z" />
<glyph unicode="T" horiz-adv-x="1288" d="M82 1239v195h1124v-195h-448v-1239h-228v1239h-448z" />
<glyph unicode="U" horiz-adv-x="1388" d="M143 514v920h228v-934q0 -158 84 -245t241 -87t239.5 87t82.5 245v934h227v-920q0 -117 -30 -210t-81 -153.5t-122 -101t-149 -57.5t-167 -17t-167.5 17t-150 57.5t-123 101t-82 153.5t-30.5 210z" />
<glyph unicode="V" horiz-adv-x="1372" d="M0 1434h258l438 -1162l437 1162h239l-575 -1434h-222z" />
<glyph unicode="W" horiz-adv-x="2125" d="M102 1434h238l303 -1080l324 1080h204l328 -1080l301 1080h223l-440 -1450h-168l-352 1122l-352 -1122h-168z" />
<glyph unicode="X" horiz-adv-x="1366" d="M41 0l496 752l-474 682h271l332 -512l327 512h275l-484 -682l541 -752h-270l-396 569l-362 -569h-256z" />
<glyph unicode="Y" horiz-adv-x="1290" d="M41 1434h258l356 -658l355 658h239l-493 -859v-575h-221v575z" />
<glyph unicode="Z" horiz-adv-x="1312" d="M113 0v168l772 1071h-725v195h1003v-160l-772 -1079h809v-195h-1087z" />
<glyph unicode="[" horiz-adv-x="790" d="M143 -225v1888h504v-176h-297v-1536h297v-176h-504z" />
<glyph unicode="\" horiz-adv-x="1224" d="M102 1540h224l796 -1765h-225z" />
<glyph unicode="]" horiz-adv-x="790" d="M143 -49h297v1536h-297v176h504v-1888h-504v176z" />
<glyph unicode="^" horiz-adv-x="1378" d="M121 870l465 682h184l465 -682h-221l-332 494h-8l-332 -494h-221z" />
<glyph unicode="_" horiz-adv-x="1441" d="M133 2h1176v-162h-1176v162z" />
<glyph unicode="`" horiz-adv-x="647" d="M82 1552h280l203 -286h-184z" />
<glyph unicode="a" horiz-adv-x="1163" d="M72 291q0 82 35 144t87.5 97t125.5 56.5t136.5 28t133.5 6.5q44 0 87 -2.5t64 -5.5l21 -3v136q0 90 -59 128.5t-175 38.5q-162 0 -282 -112l-107 137q7 6 20 17t56 38t88 48t112 38t132 17q209 0 319.5 -98.5t110.5 -292.5v-478q0 -92 84 -92l41 4l-15 -139 q-34 -14 -73 -14q-46 0 -85.5 11.5t-62.5 28.5t-39 34t-22 28l-6 12q-134 -127 -340 -127q-161 0 -274 87t-113 229zM279 291q0 -46 31 -77.5t73.5 -43.5t91.5 -12q94 0 173 27t116 73v188q-100 7 -164 7q-153 0 -237 -36t-84 -126z" />
<glyph unicode="b" horiz-adv-x="1236" d="M164 0v1458h217v-457q54 38 132.5 67.5t154.5 29.5q95 0 179.5 -33t151.5 -97t106.5 -169t39.5 -238q0 -119 -30 -218.5t-78 -166t-110 -113t-125.5 -67.5t-125.5 -21q-65 0 -122 11t-92 26t-60.5 30.5t-36.5 26.5l-11 11h-8l-41 -80h-141zM373 256q5 -4 14.5 -10.5 t38.5 -23.5t58.5 -30t72.5 -23.5t82 -10.5q72 0 126.5 31.5t86 87t46.5 124.5t15 152q0 188 -72 275t-225 87q-73 0 -140 -28t-103 -64v-567z" />
<glyph unicode="c" horiz-adv-x="1116" d="M82 539q0 113 30.5 207t82.5 158t122 108.5t148 65t162 20.5q256 0 409 -156l-100 -137q-72 56 -141.5 83t-167.5 27q-154 0 -238 -96t-84 -280q0 -182 92 -281.5t246 -99.5q159 0 299 129l113 -135q-143 -177 -408 -177q-93 0 -176 21t-154.5 66t-123.5 110t-81.5 159 t-29.5 208z" />
<glyph unicode="d" horiz-adv-x="1226" d="M82 539q0 113 27.5 207t73.5 158t106 108.5t124 65t130 20.5q80 0 162.5 -26.5t140.5 -70.5v457h217v-1458h-141l-41 80h-9q-61 -56 -139 -80.5t-190 -24.5q-82 0 -161.5 34.5t-147.5 100.5t-110 177.5t-42 251.5zM305 539q0 -179 83 -280t204 -101q130 0 262 98v569 q-13 10 -35.5 25t-91 40t-135.5 25q-60 0 -109.5 -19t-90.5 -60.5t-64 -117t-23 -179.5z" />
<glyph unicode="e" horiz-adv-x="1183" d="M82 530q0 274 142.5 421t379.5 147q120 0 217.5 -47t158 -125t92.5 -174t32 -199l-4 -88h-797q19 -147 102 -227t222 -80q107 0 188 38.5t133 96.5l117 -129q-84 -91 -187.5 -140t-269.5 -49q-99 0 -191 35t-167.5 101t-121.5 175t-46 244zM307 635h565q-15 128 -87 204 t-187 76q-118 0 -194.5 -73t-96.5 -207z" />
<glyph unicode="f" horiz-adv-x="792" d="M82 905v168h154v172q0 151 92 235.5t260 84.5q39 0 79.5 -5.5t61.5 -11.5l21 -6l-41 -156q-48 11 -103 11q-66 0 -110.5 -36t-44.5 -101v-187h258v-168h-258v-905h-215v905h-154z" />
<glyph unicode="g" d="M92 551q0 112 31 205.5t81 155.5t114.5 105t129 62t127.5 19q59 0 114 -11t91 -26t64 -30.5t40 -26.5l13 -11h8l41 80h139v-1042q0 -110 -39.5 -196.5t-109 -140t-159.5 -81t-195 -27.5q-114 0 -224.5 43.5t-179.5 106.5l82 149q69 -50 151.5 -82t151.5 -32 q65 0 120.5 12t101.5 37t72 69t26 103v106q-57 -43 -123 -63.5t-168 -20.5q-93 0 -181 34.5t-160 99.5t-115.5 169.5t-43.5 233.5zM315 563q0 -174 83.5 -269t217.5 -95q46 0 89.5 11t72.5 26.5t51 31t33 26.5l10 11v510l-11 11t-31.5 24t-51.5 30t-69 24t-86 11 q-132 0 -220 -88.5t-88 -263.5z" />
<glyph unicode="h" d="M164 0v1540h213v-608q59 84 137 125t193 41q75 0 142.5 -23.5t120.5 -68t84 -115.5t31 -160v-731h-215v702q0 213 -204 213q-56 0 -106.5 -21t-82 -51.5t-55 -61t-33.5 -51.5l-10 -21v-709h-215z" />
<glyph unicode="i" horiz-adv-x="559" d="M143 1425q0 68 40 104t96 36q57 0 97 -36t40 -104t-40 -103.5t-97 -35.5q-56 0 -96 35.5t-40 103.5zM172 0v1073h215v-1073h-215z" />
<glyph unicode="j" horiz-adv-x="595" d="M-92 -391l41 160q40 -9 71 -9q87 0 138 50.5t51 130.5v1132h215v-1159q0 -150 -102.5 -239t-272.5 -89q-34 0 -69 6t-54 12zM180 1425q0 68 39.5 104t95.5 36q57 0 97.5 -36t40.5 -104t-40.5 -103.5t-97.5 -35.5q-56 0 -95.5 35.5t-39.5 103.5z" />
<glyph unicode="k" horiz-adv-x="1138" d="M164 0v1540h215v-926l387 459h270l-418 -465l490 -608h-281l-350 453l-98 -111v-342h-215z" />
<glyph unicode="l" horiz-adv-x="544" d="M164 0v1540h217v-1540h-217z" />
<glyph unicode="m" horiz-adv-x="1878" d="M164 0v1073h158l43 -139h8q53 70 131.5 117t175.5 47q110 0 181.5 -50t105.5 -137q69 91 158.5 139t222.5 48q170 0 268 -99.5t98 -291.5v-707h-215v748q0 91 -42 129t-128 38q-75 0 -150.5 -52.5t-131.5 -155.5v-707h-216v748q0 91 -42 129t-127 38q-73 0 -147.5 -53.5 t-135.5 -152.5v-709h-215z" />
<glyph unicode="n" d="M164 0v1073h158l43 -139h8q63 76 152 120t188 44q170 0 271 -94.5t101 -272.5v-731h-215v702q0 118 -44 165.5t-132 47.5q-186 0 -315 -206v-709h-215z" />
<glyph unicode="o" horiz-adv-x="1284" d="M92 537q0 113 31 207t84 158.5t124 109.5t149.5 65.5t162.5 20.5q105 0 201 -34t175 -100t126 -176.5t47 -250.5q0 -113 -31 -207.5t-84 -159t-123.5 -109.5t-149 -65.5t-161.5 -20.5q-84 0 -162.5 20.5t-149.5 65.5t-124 109.5t-84 159t-31 207.5zM324 537 q0 -179 83.5 -279t235.5 -100q151 0 234.5 100t83.5 279t-83.5 278.5t-234.5 99.5q-152 0 -235.5 -99.5t-83.5 -278.5z" />
<glyph unicode="p" horiz-adv-x="1226" d="M164 -387v1460h162l20 -80h8q4 4 12 11t37 25.5t62 32t86.5 25t112.5 11.5q61 0 125 -19t128.5 -62t114.5 -104.5t81.5 -155.5t31.5 -206q0 -126 -42.5 -235.5t-113.5 -183t-163 -115.5t-191 -42q-52 0 -98.5 7t-76 17.5t-51 21t-31.5 17.5l-9 7v-432h-205zM373 209 q9 -6 25 -14.5t70.5 -22.5t113.5 -14q141 0 236 105t95 284q0 178 -83.5 274.5t-204.5 96.5q-41 0 -81.5 -9t-70 -22t-53 -26.5t-35.5 -22.5l-12 -9v-620z" />
<glyph unicode="q" horiz-adv-x="1226" d="M82 545q0 112 31 206.5t81 157t114 106.5t128 63.5t125 19.5q54 0 106 -11t87.5 -26t63 -30.5t40.5 -26.5l14 -11h9l20 80h162v-1460h-205v459q-4 -4 -11 -10.5t-33 -23t-57 -29.5t-83 -23.5t-111 -10.5q-72 0 -140.5 21.5t-130.5 67.5t-108.5 112t-74 161t-27.5 208z M313 541q0 -104 25 -180.5t69.5 -119.5t96.5 -63t114 -20q50 0 109 19.5t93 38.5l34 20v593q-4 3 -11.5 9t-32.5 21t-51 26t-64.5 20.5t-76.5 9.5q-139 0 -222 -96t-83 -278z" />
<glyph unicode="r" horiz-adv-x="837" d="M164 0v1073h147l47 -139h9q50 85 121 124.5t169 39.5q70 0 144 -23l-41 -194q-43 28 -127 28q-89 0 -149 -46t-105 -144v-719h-215z" />
<glyph unicode="s" horiz-adv-x="1030" d="M76 145l108 134q136 -123 303 -123q121 0 177.5 38.5t56.5 104.5q0 33 -26.5 59t-70 42t-99 33.5t-114 33t-114 42t-99 59.5t-70 86t-26.5 120q0 143 111 233.5t295 90.5q222 0 397 -148l-88 -145q-150 110 -305 110q-93 0 -149 -34.5t-56 -92.5q0 -36 27 -63.5t71.5 -44 t101 -35t115 -34.5t115 -43t101 -60t71.5 -87t27 -122q0 -140 -118 -232t-331 -92q-138 0 -244.5 51t-166.5 119z" />
<glyph unicode="t" horiz-adv-x="819" d="M51 905v168h174v113l103 155h112v-268h275v-168h-275v-635q0 -112 109 -112q35 0 76.5 8t65.5 16l24 8l63 -149q-15 -7 -39.5 -18t-86 -29.5t-105.5 -18.5q-322 0 -322 281v649h-174z" />
<glyph unicode="u" d="M164 379v694h215v-700q0 -111 57 -163t148 -52q53 0 104.5 15.5t103.5 60t78 112.5v727h215v-1073h-139l-63 139h-9q-55 -73 -133 -118.5t-176 -45.5q-85 0 -156.5 24t-127 71.5t-86.5 126.5t-31 182z" />
<glyph unicode="v" horiz-adv-x="1101" d="M20 1073h234l289 -803h8l291 803h239l-444 -1073h-186z" />
<glyph unicode="w" horiz-adv-x="1626" d="M61 1073h234l194 -751l240 751h158l237 -751l219 751h222l-363 -1073h-168l-233 737l-244 -737h-168z" />
<glyph unicode="x" horiz-adv-x="1112" d="M41 0l391 541l-373 532h250l244 -379l235 379h250l-360 -512l393 -561h-233l-273 399l-270 -399h-254z" />
<glyph unicode="y" horiz-adv-x="1214" d="M72 1073h245l304 -858l282 858h250l-426 -1145q-49 -132 -153.5 -208t-254.5 -76q-34 0 -69 5.5t-54 10.5l-18 6l43 170q50 -18 101 -18q122 0 161 112l25 70z" />
<glyph unicode="z" horiz-adv-x="995" d="M94 0v145l545 746h-506v182h770v-155l-555 -736h576v-182h-830z" />
<glyph unicode="{" horiz-adv-x="878" d="M154 637v156q72 0 122 44.5t50 129.5v233q0 165 103 258.5t286 93.5v-149q-87 0 -136 -53t-49 -144v-282q0 -48 -20.5 -89t-50.5 -65.5t-59 -38.5t-52 -16q23 -3 52 -18t59 -40t50.5 -65t20.5 -86v-283q0 -91 49 -143.5t136 -52.5v-150q-183 0 -286 93.5t-103 258.5v234 q0 85 -50 129.5t-122 44.5z" />
<glyph unicode="|" horiz-adv-x="544" d="M174 -225v1763h197v-1763h-197z" />
<glyph unicode="}" horiz-adv-x="878" d="M154 27q87 0 135.5 52.5t48.5 143.5v283q0 46 20.5 86t50.5 65t59 40t52 18q-23 2 -52 16t-59 38.5t-50.5 65.5t-20.5 89v282q0 92 -48.5 144.5t-135.5 52.5v149q183 0 286 -93.5t103 -258.5v-233q0 -85 50 -129.5t122 -44.5v-156q-72 0 -122 -44.5t-50 -129.5v-234 q0 -165 -103 -258.5t-286 -93.5v150z" />
<glyph unicode="~" horiz-adv-x="1265" d="M123 510q24 130 97.5 195t176.5 65q79 0 230.5 -40t199.5 -40q89 0 123 88h174q-29 -137 -106.5 -199.5t-183.5 -62.5q-77 0 -236 40t-201 40q-46 0 -74.5 -23t-48.5 -63h-151z" />
<glyph unicode="&#xa1;" horiz-adv-x="600" d="M150 944q0 75 43.5 114.5t105.5 39.5t106 -39.5t44 -114.5q0 -73 -44 -112t-106 -39t-105.5 39t-43.5 112zM174 -383l39 963h180l39 -963h-258z" />
<glyph unicode="&#xa2;" horiz-adv-x="1136" d="M123 713q0 109 33 197.5t90 147t127.5 94.5t152.5 50v232h197v-236q68 -15 132.5 -47.5t94.5 -58.5l31 -25l-94 -137q-77 67 -164 98v-639q101 30 182 105l94 -138q-5 -4 -13.5 -11.5t-37 -27t-58.5 -36t-76 -34t-91 -26.5v-221h-197v221q-86 15 -157.5 52t-127.5 96.5 t-87 147.5t-31 196zM338 713q0 -127 49.5 -208.5t138.5 -111.5v641q-91 -26 -139.5 -108t-48.5 -213z" />
<glyph unicode="&#xa3;" horiz-adv-x="1275" d="M147 -25v181q138 46 138 192v346h-111v187h111v174q0 102 34.5 181.5t94.5 127t133.5 72t157.5 24.5q120 0 213.5 -35t187.5 -106l-109 -170q-20 14 -52.5 34.5t-111 54.5t-131.5 34q-196 0 -196 -234v-157h424v-187h-424v-366q0 -71 -49 -142q122 0 200 -8q3 0 11.5 -1 t11.5 -1q103 -14 203 -14q119 0 211 18l41 -180q-173 -25 -271 -25q-61 0 -176 9q-5 0 -18.5 2t-18.5 2q-126 12 -225 12q-137 0 -279 -25z" />
<glyph unicode="&#xa4;" horiz-adv-x="1705" d="M324 264l151 150q-78 128 -78 260q0 129 76 262l-149 147l149 150l166 -164q118 49 244 49q111 0 241 -53l170 170l148 -150l-158 -155q72 -119 72 -256q0 -129 -70 -250l156 -160l-148 -147l-170 164q-130 -50 -241 -50q-113 0 -240 50l-170 -168zM616 674 q0 -123 73 -189.5t198 -66.5q106 10 169.5 73t63.5 183q0 119 -65.5 186.5t-171.5 67.5q-123 0 -195 -67t-72 -187z" />
<glyph unicode="&#xa5;" horiz-adv-x="1208" d="M0 1434h258l342 -633h27l342 633h239l-364 -633h278v-150h-344l-63 -114h407v-148h-407v-389h-221v389h-406v148h406l-64 114h-342v150h274z" />
<glyph unicode="&#xa6;" horiz-adv-x="831" d="M319 -317v1857h191v-1857h-191z" />
<glyph unicode="&#xa7;" horiz-adv-x="1228" d="M121 -121l100 154q58 -57 169.5 -101.5t193.5 -44.5q140 0 208 47t68 125q0 35 -24.5 62t-65.5 44.5t-94 32t-112 29.5t-118 32t-112 43.5t-94 61.5t-65.5 88.5t-24.5 120.5q0 96 56 176t156 111q-78 29 -128 96t-50 154q0 154 125.5 251t323.5 97q223 0 428 -160 l-113 -143q-143 125 -311 125q-113 0 -180.5 -45t-67.5 -111q0 -41 24.5 -72t66 -51t95.5 -36t114 -31t119.5 -32t113.5 -42.5t95.5 -59.5t66 -86.5t24.5 -119.5q0 -93 -54.5 -168t-162.5 -121q86 -32 135 -95.5t49 -150.5q0 -153 -125.5 -251.5t-357.5 -98.5 q-140 0 -271.5 52t-199.5 118zM354 580q0 -76 74 -119t197 -43t196.5 43t73.5 119q0 74 -73.5 117.5t-196.5 43.5t-197 -43.5t-74 -117.5z" />
<glyph unicode="&#xa8;" horiz-adv-x="614" d="M-18 1423q0 63 36.5 96t87.5 33q52 0 89.5 -33t37.5 -96q0 -62 -37.5 -95.5t-89.5 -33.5q-50 0 -87 33.5t-37 95.5zM383 1423q0 63 37 96t88 33q52 0 89.5 -33t37.5 -96q0 -62 -37.5 -95.5t-89.5 -33.5q-50 0 -87.5 33.5t-37.5 95.5z" />
<glyph unicode="&#xa9;" horiz-adv-x="1763" d="M274 623q0 154 51 278.5t139.5 204t205.5 122t252 42.5t251.5 -42.5t205 -122t139.5 -204t51 -278.5q0 -153 -51 -277.5t-139.5 -204.5t-205.5 -123t-251 -43q-135 0 -252 43t-205.5 123t-139.5 204.5t-51 277.5zM432 623q0 -150 67 -266.5t177.5 -177t245.5 -60.5 q100 0 189.5 36t155.5 100t105 159.5t39 208.5q0 151 -66.5 267t-177 176t-245.5 60t-245.5 -60t-177.5 -176t-67 -267zM623 635q0 145 88 230t209 85q151 0 233 -78l-92 -127q-63 54 -131 54q-65 0 -102 -47t-37 -117q0 -76 39 -120t102 -44q64 0 137 55l82 -120 q-32 -35 -92 -62t-129 -27q-138 0 -222.5 84.5t-84.5 233.5z" />
<glyph unicode="&#xaa;" horiz-adv-x="776" d="M76 799q0 60 31 102t81.5 61.5t97.5 27t97 7.5l90 -4v62q0 98 -121 98q-59 0 -162 -76l-81 99q127 104 247 104q265 0 265 -242v-247q0 -24 19 -41t50 -17l-10 -108q-35 -17 -74 -17q-58 0 -106 56q-91 -56 -195 -56q-98 0 -163.5 51t-65.5 140zM242 809q0 -36 26 -57 t62 -21q27 0 63 11.5t58 23.5l22 12v117q-43 8 -94 8q-61 0 -99 -26.5t-38 -67.5z" />
<glyph unicode="&#xab;" horiz-adv-x="1153" d="M72 659v97l407 487l137 -104l-360 -434l360 -429l-135 -106zM535 659v97l405 487l137 -104l-360 -434l360 -429l-135 -106z" />
<glyph unicode="&#xac;" horiz-adv-x="1345" d="M166 637v186h1018v-518h-209v332h-809z" />
<glyph unicode="&#xad;" horiz-adv-x="925" d="M164 508v190h598v-190h-598z" />
<glyph unicode="&#xae;" horiz-adv-x="1216" d="M143 1065q0 147 63.5 255t168.5 161t237 53t236.5 -53t167.5 -161t63 -255q0 -221 -132 -345t-335 -124q-132 0 -237 52.5t-168.5 160.5t-63.5 256zM274 1063q0 -160 98.5 -254t241.5 -94q144 0 242 94t98 254q0 161 -98.5 256.5t-241.5 95.5q-142 0 -241 -96t-99 -256z M451 842v452h165q93 0 131.5 -35.5t38.5 -103.5q0 -34 -16 -62.5t-32 -40.5l-17 -12l104 -198h-120l-82 170h-66v-170h-106zM557 1096h53q66 0 66 53q0 28 -13.5 40.5t-50.5 12.5h-55v-106z" />
<glyph unicode="&#xb0;" horiz-adv-x="579" d="M94 1268q0 92 59.5 141t141.5 49t141.5 -49t59.5 -141t-59.5 -141.5t-141.5 -49.5t-141.5 49.5t-59.5 141.5zM211 1268q0 -43 23.5 -66.5t60.5 -23.5t60.5 23.5t23.5 66.5t-23.5 66.5t-60.5 23.5t-60.5 -23.5t-23.5 -66.5z" />
<glyph unicode="&#xb1;" horiz-adv-x="1222" d="M104 920v186h416v438h187v-438h415v-186h-415v-437h-187v437h-416zM135 100h963v197h-963v-197z" />
<glyph unicode="&#xb2;" horiz-adv-x="909" d="M154 1323q73 64 142.5 99.5t156.5 35.5q139 0 215.5 -67.5t76.5 -167.5q0 -56 -23.5 -113.5t-61 -106.5t-87 -95.5t-98 -81.5t-98.5 -64h379v-148h-574v150q83 57 146.5 106.5t125 110t95 122t33.5 118.5q0 42 -35.5 72t-87.5 30q-59 0 -107.5 -25.5t-103.5 -76.5z" />
<glyph unicode="&#xb3;" horiz-adv-x="897" d="M156 721l82 108q42 -34 101 -62t118 -28q79 0 122.5 40.5t43.5 92.5q0 111 -156 111h-109v135h76q73 0 115.5 31t42.5 76q0 42 -32.5 70t-98.5 28q-93 0 -193 -96l-92 100q70 63 137 97t158 34q136 0 210.5 -62.5t74.5 -148.5q0 -52 -29 -104t-72 -82q56 -26 94.5 -75 t38.5 -114q0 -119 -90 -193.5t-235 -74.5q-163 0 -307 117z" />
<glyph unicode="&#xb4;" horiz-adv-x="636" d="M82 1266l203 286h270l-289 -286h-184z" />
<glyph unicode="&#xb6;" horiz-adv-x="1411" d="M168 1057q0 79 22.5 144t72 119t138.5 84t211 30h615v-1434h-195v1241h-164v-1241h-194v666q-243 0 -374.5 110.5t-131.5 280.5z" />
<glyph unicode="&#xb7;" horiz-adv-x="559" d="M133 623q0 72 43 110.5t105 38.5q61 0 103 -38.5t42 -110.5q0 -74 -41.5 -112t-103.5 -38t-105 38.5t-43 111.5z" />
<glyph unicode="&#xb8;" horiz-adv-x="299" d="M0 -322q5 2 30.5 10.5t37.5 14.5t30.5 17t26.5 25.5t8 33.5q0 18 -15.5 30.5t-39.5 12.5l-25 -4l-28 41v135h135v-92q137 -15 137 -135q0 -44 -28.5 -79.5t-73 -55.5t-82 -30.5t-72.5 -15.5z" />
<glyph unicode="&#xb9;" horiz-adv-x="718" d="M61 1249l261 189h112v-817h-160v593l-133 -94z" />
<glyph unicode="&#xba;" horiz-adv-x="813" d="M86 993q0 83 27 148t73.5 103.5t102.5 58.5t119 20t119.5 -20t102.5 -58.5t73.5 -103.5t27.5 -148q0 -82 -27.5 -146.5t-73.5 -103.5t-102.5 -59t-119.5 -20t-119 20t-102.5 59t-73.5 103.5t-27 146.5zM246 993q0 -90 43.5 -144t118.5 -54q76 0 118.5 51t42.5 147 q0 91 -43 145t-118 54t-118.5 -54t-43.5 -145z" />
<glyph unicode="&#xbb;" horiz-adv-x="1153" d="M70 1139q7 6 139 104q37 -44 178 -215t227 -272v-97l-409 -489l-133 106l356 433q-149 188 -358 430zM532 1139q19 15 138 104q37 -44 178 -215t227 -272v-97l-407 -489l-133 106l354 433q-109 138 -357 430z" />
<glyph unicode="&#xbc;" horiz-adv-x="1853" d="M133 1249l260 189h113v-817h-160v593l-133 -94zM238 0h206l1094 1432h-205zM1040 180v139l433 498h129v-493h118v-144h-118v-180h-160v180h-402zM1233 324h209v247z" />
<glyph unicode="&#xbd;" horiz-adv-x="1910" d="M133 1249l260 189h113v-817h-160v593l-133 -94zM238 0h206l1094 1432h-205zM1176 709q73 64 142.5 99.5t156.5 35.5q139 0 215.5 -68t76.5 -168q0 -56 -23.5 -113.5t-61 -106.5t-87 -95.5t-98 -81.5t-98.5 -64h379v-147h-574v150q84 57 146.5 106.5t124.5 109.5 t95.5 121.5t33.5 118.5q0 42 -35.5 72.5t-87.5 30.5q-59 0 -107 -26t-104 -77z" />
<glyph unicode="&#xbe;" horiz-adv-x="2058" d="M133 721l82 108q42 -34 101 -62t118 -28q79 0 122.5 40.5t43.5 92.5q0 111 -156 111h-108v135h76q73 0 115 31t42 76q0 42 -32.5 70t-98.5 28q-92 0 -192 -96l-92 100q70 63 137 97t158 34q136 0 210 -62t74 -149q0 -52 -28.5 -104t-71.5 -82q56 -26 94.5 -75t38.5 -114 q0 -119 -90.5 -193.5t-235.5 -74.5q-163 0 -307 117zM442 0h207l1094 1432h-205zM1245 180v139l432 498h129v-493h119v-144h-119v-180h-159v180h-402zM1438 324h209v247z" />
<glyph unicode="&#xbf;" horiz-adv-x="868" d="M84 -47q0 -143 131 -239.5t334 -96.5q238 0 432 156l-109 161q-72 -64 -149.5 -96.5t-181.5 -32.5q-93 0 -156 41.5t-63 100.5q0 36 20.5 70t53 64.5t72 64.5t79 78.5t72 97t53 129.5t20.5 167h-223q0 -81 -21 -146t-55 -107.5t-75 -78.5t-82.5 -68.5t-75.5 -67.5 t-55 -85t-21 -112zM426 944q0 77 44 117.5t108 40.5t108.5 -40.5t44.5 -117.5t-44 -115t-109 -38q-64 0 -108 38t-44 115z" />
<glyph unicode="&#xc0;" horiz-adv-x="1454" d="M82 0l534 1434h222l534 -1434h-258l-100 293h-594l-98 -293h-240zM301 1935h281l202 -286h-184zM487 487h459l-229 674z" />
<glyph unicode="&#xc1;" horiz-adv-x="1454" d="M82 0l534 1434h222l534 -1434h-258l-100 293h-594l-98 -293h-240zM487 487h459l-229 674zM653 1651l203 286h270l-288 -286h-185z" />
<glyph unicode="&#xc2;" horiz-adv-x="1536" d="M82 0l575 1434h222l575 -1434h-258l-111 293h-655l-108 -293h-240zM436 1659l240 276h182l240 -276h-160l-168 153h-8l-166 -153h-160zM502 483h512l-256 678z" />
<glyph unicode="&#xc3;" horiz-adv-x="1454" d="M82 0l534 1434h222l534 -1434h-258l-100 293h-594l-98 -293h-240zM336 1692q25 117 97.5 179t160.5 62q53 0 153.5 -37.5t137.5 -37.5q70 0 100 79h133q-26 -120 -84.5 -181.5t-159.5 -61.5q-45 0 -147.5 37.5t-140.5 37.5q-82 0 -117 -77h-133zM487 487h459l-229 674z " />
<glyph unicode="&#xc4;" horiz-adv-x="1536" d="M82 0l575 1434h222l575 -1434h-258l-111 293h-655l-108 -293h-240zM414 1798q0 68 39.5 103.5t95.5 35.5q57 0 97 -35.5t40 -103.5t-40 -103.5t-97 -35.5q-56 0 -95.5 35.5t-39.5 103.5zM502 483h512l-256 678zM848 1798q0 68 39.5 103.5t95.5 35.5q57 0 97 -35.5 t40 -103.5t-40 -103.5t-97 -35.5q-56 0 -95.5 35.5t-39.5 103.5z" />
<glyph unicode="&#xc5;" horiz-adv-x="1454" d="M82 0l534 1434h222l534 -1434h-258l-100 293h-594l-98 -293h-240zM487 487h459l-229 674zM553 1786q0 75 48.5 113t117.5 38q65 0 113.5 -38.5t48.5 -112.5q0 -73 -48.5 -112.5t-113.5 -39.5q-69 0 -117.5 39.5t-48.5 112.5zM655 1786q0 -30 18 -46t44 -16q25 0 43 16 t18 46t-17.5 45.5t-43.5 15.5t-44 -15.5t-18 -45.5z" />
<glyph unicode="&#xc6;" horiz-adv-x="1775" d="M143 0l709 1434h883v-191h-578v-420h498v-190h-498v-443h578v-190h-805v293h-402l-137 -293h-248zM616 483h314v672z" />
<glyph unicode="&#xc7;" horiz-adv-x="1351" d="M102 719q0 150 36 273.5t97.5 209t146.5 144t181.5 85.5t202.5 27q75 0 144 -13.5t116.5 -31.5t95.5 -46.5t72.5 -47.5t54.5 -45l-121 -150q-65 59 -160 100.5t-202 41.5q-211 0 -316.5 -140t-105.5 -407q0 -254 116.5 -402.5t305.5 -148.5q214 0 389 160l119 -160 q-214 -182 -479 -193v-73q137 -15 137 -135q0 -44 -28.5 -79.5t-73 -55.5t-82 -30.5t-72.5 -15.5l-41 92q5 2 30.5 10.5t37.5 14.5t30.5 17t26.5 25.5t8 33.5q0 18 -15.5 30.5t-39.5 12.5l-25 -4l-29 41v125q-117 16 -215.5 68.5t-176 140.5t-121.5 223t-44 303z" />
<glyph unicode="&#xc8;" horiz-adv-x="1234" d="M174 0v1434h928v-195h-701v-414h621v-194h-621v-436h701v-195h-928zM272 1935h281l203 -286h-185z" />
<glyph unicode="&#xc9;" horiz-adv-x="1234" d="M174 0v1434h928v-195h-701v-414h621v-194h-621v-436h701v-195h-928zM500 1649l202 286h271l-289 -286h-184z" />
<glyph unicode="&#xca;" horiz-adv-x="1234" d="M174 0v1434h928v-195h-701v-414h621v-194h-621v-436h701v-195h-928zM293 1665l254 270h145l248 -270h-197l-125 135l-122 -135h-203z" />
<glyph unicode="&#xcb;" horiz-adv-x="1234" d="M174 0v1434h928v-195h-701v-414h621v-194h-621v-436h701v-195h-928zM326 1806q0 63 37 96t88 33q52 0 89.5 -33t37.5 -96q0 -62 -37.5 -95.5t-89.5 -33.5q-50 0 -87.5 33.5t-37.5 95.5zM727 1806q0 63 37 96t88 33q52 0 89.5 -33t37.5 -96q0 -62 -37.5 -95.5t-89.5 -33.5 q-50 0 -87.5 33.5t-37.5 95.5z" />
<glyph unicode="&#xcc;" horiz-adv-x="636" d="M-61 1935h280l203 -286h-184zM205 0v1434h227v-1434h-227z" />
<glyph unicode="&#xcd;" horiz-adv-x="636" d="M205 0v1434h227v-1434h-227zM221 1649l203 286h270l-288 -286h-185z" />
<glyph unicode="&#xce;" horiz-adv-x="636" d="M-6 1665l254 270h145l248 -270h-197l-125 135l-122 -135h-203zM205 0v1434h227v-1434h-227z" />
<glyph unicode="&#xcf;" horiz-adv-x="636" d="M-8 1806q0 63 37 96t88 33q52 0 89.5 -33t37.5 -96q0 -62 -37.5 -95.5t-89.5 -33.5q-50 0 -87.5 33.5t-37.5 95.5zM205 0v1434h227v-1434h-227zM393 1806q0 63 37 96t88 33q52 0 89.5 -33t37.5 -96q0 -62 -37.5 -95.5t-89.5 -33.5q-50 0 -87.5 33.5t-37.5 95.5z" />
<glyph unicode="&#xd0;" horiz-adv-x="1605" d="M82 614v191h201v629h483q107 0 205.5 -24.5t189 -79.5t156.5 -136.5t105.5 -203.5t39.5 -271t-39.5 -271.5t-106 -204.5t-156.5 -137.5t-188.5 -80.5t-205.5 -25h-483v614h-201zM510 190h256q212 0 333.5 134.5t121.5 394.5q0 258 -121 391t-334 133h-256v-438h305v-191 h-305v-424z" />
<glyph unicode="&#xd1;" horiz-adv-x="1466" d="M150 0v1434h190l756 -1031v1031h227v-1434h-197l-757 1026v-1026h-219zM342 1642q25 117 97.5 179.5t160.5 62.5q52 0 153 -38t138 -38q70 0 100 80h133q-26 -120 -84 -181.5t-159 -61.5q-45 0 -148 37.5t-141 37.5q-82 0 -117 -78h-133z" />
<glyph unicode="&#xd2;" horiz-adv-x="1640" d="M123 719q0 149 39.5 273.5t106 209.5t156.5 143.5t189.5 85.5t206.5 27q106 0 205.5 -27t189.5 -85.5t156.5 -143.5t106 -209.5t39.5 -273.5t-39.5 -274t-106 -210.5t-156.5 -145t-189.5 -87t-205.5 -27.5q-107 0 -206.5 27.5t-189.5 87t-156.5 145t-106 210.5t-39.5 274 zM365 721q0 -260 120.5 -406.5t327.5 -146.5q214 0 338.5 144.5t124.5 408.5q0 260 -122.5 402.5t-332.5 142.5q-212 0 -334 -142t-122 -403zM453 1935h280l203 -286h-184z" />
<glyph unicode="&#xd3;" horiz-adv-x="1640" d="M143 719q0 149 39.5 273.5t106.5 209.5t157 143.5t189.5 85.5t206.5 27q106 0 205.5 -27t189 -85.5t156 -143.5t106 -209.5t39.5 -273.5t-39.5 -274t-106 -210.5t-156 -145t-189 -87t-205.5 -27.5q-107 0 -206.5 27.5t-189.5 87t-157 145t-106.5 210.5t-39.5 274z M385 721q0 -260 121 -406.5t328 -146.5q214 0 338 144t124 409q0 260 -122 402.5t-332 142.5q-212 0 -334.5 -142t-122.5 -403zM733 1649l203 286h270l-288 -286h-185z" />
<glyph unicode="&#xd4;" horiz-adv-x="1640" d="M143 719q0 149 39.5 273.5t106.5 209.5t157 143.5t189.5 85.5t206.5 27q106 0 205.5 -27t189 -85.5t156 -143.5t106 -209.5t39.5 -273.5t-39.5 -274t-106 -210.5t-156 -145t-189 -87t-205.5 -27.5q-107 0 -206.5 27.5t-189.5 87t-157 145t-106.5 210.5t-39.5 274z M385 721q0 -260 121 -406.5t328 -146.5q214 0 338 144t124 409q0 260 -122 402.5t-332 142.5q-212 0 -334.5 -142t-122.5 -403zM496 1665l254 270h145l248 -270h-197l-125 135l-123 -135h-202z" />
<glyph unicode="&#xd5;" horiz-adv-x="1640" d="M143 719q0 149 39.5 273.5t106.5 209.5t157 143.5t189.5 85.5t206.5 27q106 0 205.5 -27t189 -85.5t156 -143.5t106 -209.5t39.5 -273.5t-39.5 -274t-106 -210.5t-156 -145t-189 -87t-205.5 -27.5q-107 0 -206.5 27.5t-189.5 87t-157 145t-106.5 210.5t-39.5 274z M385 721q0 -260 121 -406.5t328 -146.5q214 0 338 144t124 409q0 260 -122 402.5t-332 142.5q-212 0 -334.5 -142t-122.5 -403zM428 1690q25 117 97.5 179t160.5 62q52 0 153 -38t138 -38q70 0 100 80h133q-26 -120 -84 -181.5t-159 -61.5q-45 0 -148 37.5t-141 37.5 q-82 0 -117 -77h-133z" />
<glyph unicode="&#xd6;" horiz-adv-x="1640" d="M143 719q0 149 39.5 273.5t106.5 209.5t157 143.5t189.5 85.5t206.5 27q106 0 205.5 -27t189 -85.5t156 -143.5t106 -209.5t39.5 -273.5t-39.5 -274t-106 -210.5t-156 -145t-189 -87t-205.5 -27.5q-107 0 -206.5 27.5t-189.5 87t-157 145t-106.5 210.5t-39.5 274z M385 721q0 -260 121 -406.5t328 -146.5q214 0 338 144t124 409q0 260 -122 402.5t-332 142.5q-212 0 -334.5 -142t-122.5 -403zM494 1806q0 63 36.5 96t87.5 33q52 0 89.5 -33t37.5 -96q0 -62 -37.5 -95.5t-89.5 -33.5q-50 0 -87 33.5t-37 95.5zM895 1806q0 63 37 96t88 33 q52 0 89.5 -33t37.5 -96q0 -62 -37.5 -95.5t-89.5 -33.5q-50 0 -87.5 33.5t-37.5 95.5z" />
<glyph unicode="&#xd7;" horiz-adv-x="1140" d="M143 313l291 291l-291 293l136 135l290 -293l293 293l135 -135l-292 -293l292 -291l-135 -135l-293 291l-290 -291z" />
<glyph unicode="&#xd8;" horiz-adv-x="1640" d="M123 719q0 149 39.5 273.5t106 209.5t156.5 143.5t189.5 85.5t206.5 27q103 0 211 -31l88 195h223l-126 -279q140 -91 220.5 -247.5t80.5 -376.5q0 -149 -39.5 -274t-106 -210.5t-156.5 -145t-189.5 -87t-205.5 -27.5q-98 0 -211 29l-102 -229h-225l141 313 q-140 93 -220.5 251t-80.5 380zM365 719q0 -292 147 -436l442 974q-65 19 -133 19q-211 0 -333.5 -147.5t-122.5 -409.5zM692 182q55 -14 129 -14q211 5 333 147.5t122 403.5q0 282 -146 434z" />
<glyph unicode="&#xd9;" horiz-adv-x="1388" d="M143 514v920h228v-934q0 -158 84 -245t241 -87t239.5 87t82.5 245v934h227v-920q0 -117 -30 -210t-81 -153.5t-122 -101t-149 -57.5t-167 -17t-167.5 17t-150 57.5t-123 101t-82 153.5t-30.5 210zM309 1933h281l203 -286h-185z" />
<glyph unicode="&#xda;" horiz-adv-x="1388" d="M143 514v920h228v-934q0 -158 84 -245t241 -87t239.5 87t82.5 245v934h227v-920q0 -117 -30 -210t-81 -153.5t-122 -101t-149 -57.5t-167 -17t-167.5 17t-150 57.5t-123 101t-82 153.5t-30.5 210zM598 1647l203 286h270l-289 -286h-184z" />
<glyph unicode="&#xdb;" horiz-adv-x="1388" d="M143 514v920h228v-934q0 -158 84 -245t241 -87t239.5 87t82.5 245v934h227v-920q0 -117 -30 -210t-81 -153.5t-122 -101t-149 -57.5t-167 -17t-167.5 17t-150 57.5t-123 101t-82 153.5t-30.5 210zM375 1665l254 270h145l248 -270h-197l-125 135l-122 -135h-203z" />
<glyph unicode="&#xdc;" horiz-adv-x="1388" d="M143 514v920h228v-934q0 -158 84 -245t241 -87t239.5 87t82.5 245v934h227v-920q0 -117 -30 -210t-81 -153.5t-122 -101t-149 -57.5t-167 -17t-167.5 17t-150 57.5t-123 101t-82 153.5t-30.5 210zM375 1804q0 63 37 96t88 33q52 0 89.5 -33t37.5 -96q0 -62 -37.5 -95.5 t-89.5 -33.5q-50 0 -87.5 33.5t-37.5 95.5zM776 1804q0 63 37 96t88 33q52 0 89.5 -33t37.5 -96q0 -62 -37.5 -95.5t-89.5 -33.5q-50 0 -87.5 33.5t-37.5 95.5z" />
<glyph unicode="&#xdd;" horiz-adv-x="1208" d="M0 1434h258l356 -658l355 658h239l-493 -859v-575h-221v575zM528 1647l203 286h270l-288 -286h-185z" />
<glyph unicode="&#xde;" horiz-adv-x="1169" d="M174 0v1434h227v-242h207q114 0 202 -23t145.5 -62.5t94.5 -96.5t52.5 -121t15.5 -141q0 -95 -28.5 -173t-88 -139t-159.5 -95t-234 -34h-207v-307h-227zM401 489h224q63 0 112.5 22.5t79 60t45 83t15.5 93.5q0 117 -67.5 185t-184.5 68h-224v-512z" />
<glyph unicode="&#xdf;" horiz-adv-x="1304" d="M164 0v1067q0 93 37 165.5t102 116.5t147 66.5t177 22.5q234 0 352.5 -94.5t118.5 -268.5q0 -197 -172 -295q132 -36 209 -129t77 -243q0 -92 -26 -169t-78 -137t-137 -93.5t-195 -33.5q-64 0 -126.5 13t-93.5 26l-30 13l31 174q97 -39 193 -39q106 0 165.5 60.5 t59.5 168.5q0 127 -75.5 186.5t-225.5 59.5h-150v190h39q164 0 243 59.5t79 164.5q0 97 -67 145.5t-181 48.5q-110 0 -181 -52.5t-71 -166.5v-1026h-221z" />
<glyph unicode="&#xe0;" horiz-adv-x="1163" d="M72 291q0 82 35 144t87.5 97t125.5 56.5t136.5 28t133.5 6.5q44 0 87 -2.5t64 -5.5l21 -3v136q0 90 -59 128.5t-175 38.5q-162 0 -282 -112l-107 137q7 6 20 17t56 38t88 48t112 38t132 17q209 0 319.5 -98.5t110.5 -292.5v-478q0 -92 84 -92l41 4l-15 -139 q-34 -14 -73 -14q-46 0 -85.5 11.5t-62.5 28.5t-39 34t-22 28l-6 12q-134 -127 -340 -127q-161 0 -274 87t-113 229zM225 1552h281l203 -286h-185zM279 291q0 -46 31 -77.5t73.5 -43.5t91.5 -12q94 0 173 27t116 73v188q-100 7 -164 7q-153 0 -237 -36t-84 -126z" />
<glyph unicode="&#xe1;" horiz-adv-x="1163" d="M72 291q0 82 35 144t87.5 97t125.5 56.5t136.5 28t133.5 6.5q44 0 87 -2.5t64 -5.5l21 -3v136q0 90 -59 128.5t-175 38.5q-162 0 -282 -112l-107 137q7 6 20 17t56 38t88 48t112 38t132 17q209 0 319.5 -98.5t110.5 -292.5v-478q0 -92 84 -92l41 4l-15 -139 q-34 -14 -73 -14q-46 0 -85.5 11.5t-62.5 28.5t-39 34t-22 28l-6 12q-134 -127 -340 -127q-161 0 -274 87t-113 229zM279 291q0 -46 31 -77.5t73.5 -43.5t91.5 -12q94 0 173 27t116 73v188q-100 7 -164 7q-153 0 -237 -36t-84 -126zM432 1266l203 286h270l-289 -286h-184z " />
<glyph unicode="&#xe2;" horiz-adv-x="1163" d="M72 291q0 82 35 144t87.5 97t125.5 56.5t136.5 28t133.5 6.5q44 0 87 -2.5t64 -5.5l21 -3v136q0 90 -59 128.5t-175 38.5q-162 0 -282 -112l-107 137q7 6 20 17t56 38t88 48t112 38t132 17q209 0 319.5 -98.5t110.5 -292.5v-478q0 -92 84 -92l41 4l-15 -139 q-34 -14 -73 -14q-46 0 -85.5 11.5t-62.5 28.5t-39 34t-22 28l-6 12q-134 -127 -340 -127q-161 0 -274 87t-113 229zM256 1282l254 270h145l248 -270h-196l-125 135l-123 -135h-203zM279 291q0 -46 31 -77.5t73.5 -43.5t91.5 -12q94 0 173 27t116 73v188q-100 7 -164 7 q-153 0 -237 -36t-84 -126z" />
<glyph unicode="&#xe3;" horiz-adv-x="1163" d="M72 291q0 82 35 144t87.5 97t125.5 56.5t136.5 28t133.5 6.5q44 0 87 -2.5t64 -5.5l21 -3v136q0 90 -59 128.5t-175 38.5q-162 0 -282 -112l-107 137q7 6 20 17t56 38t88 48t112 38t132 17q209 0 319.5 -98.5t110.5 -292.5v-478q0 -92 84 -92l41 4l-15 -139 q-34 -14 -73 -14q-46 0 -85.5 11.5t-62.5 28.5t-39 34t-22 28l-6 12q-134 -127 -340 -127q-161 0 -274 87t-113 229zM176 1307q25 117 97.5 179t160.5 62q52 0 153 -37.5t138 -37.5q70 0 100 79h133q-26 -120 -84 -181.5t-159 -61.5q-45 0 -148 37.5t-141 37.5 q-82 0 -117 -77h-133zM279 291q0 -46 31 -77.5t73.5 -43.5t91.5 -12q94 0 173 27t116 73v188q-100 7 -164 7q-153 0 -237 -36t-84 -126z" />
<glyph unicode="&#xe4;" horiz-adv-x="1163" d="M72 291q0 82 35 144t87.5 97t125.5 56.5t136.5 28t133.5 6.5q44 0 87 -2.5t64 -5.5l21 -3v136q0 90 -59 128.5t-175 38.5q-162 0 -282 -112l-107 137q7 6 20 17t56 38t88 48t112 38t132 17q209 0 319.5 -98.5t110.5 -292.5v-478q0 -92 84 -92l41 4l-15 -139 q-34 -14 -73 -14q-46 0 -85.5 11.5t-62.5 28.5t-39 34t-22 28l-6 12q-134 -127 -340 -127q-161 0 -274 87t-113 229zM227 1423q0 63 37 96t88 33q52 0 89.5 -33t37.5 -96q0 -62 -37.5 -95.5t-89.5 -33.5q-50 0 -87.5 33.5t-37.5 95.5zM279 291q0 -46 31 -77.5t73.5 -43.5 t91.5 -12q94 0 173 27t116 73v188q-100 7 -164 7q-153 0 -237 -36t-84 -126zM629 1423q0 63 37 96t88 33q52 0 89.5 -33t37.5 -96q0 -62 -37.5 -95.5t-89.5 -33.5q-50 0 -87.5 33.5t-37.5 95.5z" />
<glyph unicode="&#xe5;" horiz-adv-x="1163" d="M72 291q0 82 35 144t87.5 97t125.5 56.5t136.5 28t133.5 6.5q44 0 87 -2.5t64 -5.5l21 -3v136q0 90 -59 128.5t-175 38.5q-162 0 -282 -112l-107 137q7 6 20 17t56 38t88 48t112 38t132 17q209 0 319.5 -98.5t110.5 -292.5v-478q0 -92 84 -92l41 4l-15 -139 q-34 -14 -73 -14q-46 0 -85.5 11.5t-62.5 28.5t-39 34t-22 28l-6 12q-134 -127 -340 -127q-161 0 -274 87t-113 229zM279 291q0 -46 31 -77.5t73.5 -43.5t91.5 -12q94 0 173 27t116 73v188q-100 7 -164 7q-153 0 -237 -36t-84 -126zM420 1401q0 75 48.5 113t117.5 38 q65 0 113.5 -38.5t48.5 -112.5q0 -73 -48.5 -112.5t-113.5 -39.5q-69 0 -117.5 39.5t-48.5 112.5zM522 1401q0 -30 18 -46t44 -16q25 0 43 16t18 46t-17.5 45.5t-43.5 15.5t-44 -15.5t-18 -45.5z" />
<glyph unicode="&#xe6;" horiz-adv-x="2019" d="M154 291q0 82 35 144t87.5 97t125.5 56.5t136.5 28t133.5 6.5q44 0 87 -2.5t64 -5.5l21 -3v136q0 90 -59 128.5t-175 38.5q-162 0 -282 -112l-107 137q7 6 20 17t56 38t88 48t112 38t132 17q237 0 360 -176q72 82 169 129t210 47q162 0 275.5 -77t168 -208.5t54.5 -306.5 l-2 -41h-797q19 -147 102 -227t222 -80q107 0 188 38.5t133 96.5l117 -129q-84 -91 -187.5 -140t-269.5 -49q-278 0 -391 170q-52 -72 -166.5 -121t-273.5 -49q-161 0 -274 87t-113 229zM360 291q0 -67 59.5 -100t137.5 -33q94 0 173 27t116 73v188q-100 7 -164 7 q-153 0 -237.5 -36t-84.5 -126zM1071 635h565q-15 128 -87 204t-187 76q-118 0 -194.5 -73t-96.5 -207z" />
<glyph unicode="&#xe7;" horiz-adv-x="1126" d="M82 539q0 113 30.5 207t82.5 158t122 108.5t148 65t162 20.5q256 0 409 -156l-100 -137q-72 56 -141.5 83t-167.5 27q-154 0 -238 -96t-84 -280q0 -182 92 -281.5t246 -99.5q159 0 299 129l113 -135q-139 -172 -396 -177v-73q138 -15 138 -135q0 -44 -28.5 -79.5 t-73 -55.5t-82 -30.5t-72.5 -15.5l-41 92q5 2 30.5 10.5t37.5 14.5t30.5 17t26.5 25.5t8 33.5q0 18 -15.5 30.5t-39.5 12.5l-25 -4l-29 41v127q-96 16 -175 57t-139.5 108t-94 166t-33.5 222z" />
<glyph unicode="&#xe8;" horiz-adv-x="1204" d="M92 530q0 274 142.5 421t379.5 147q120 0 217.5 -47t158 -125t92.5 -174t32 -199l-4 -88h-797q19 -147 102 -227t222 -80q107 0 188 38.5t133 96.5l117 -129q-84 -91 -187.5 -140t-269.5 -49q-99 0 -191 35t-167.5 101t-121.5 175t-46 244zM250 1552h280l203 -286h-184z M317 635h566q-15 128 -87.5 204t-187.5 76q-118 0 -194.5 -73t-96.5 -207z" />
<glyph unicode="&#xe9;" horiz-adv-x="1204" d="M92 530q0 274 142.5 421t379.5 147q120 0 217.5 -47t158 -125t92.5 -174t32 -199l-4 -88h-797q19 -147 102 -227t222 -80q107 0 188 38.5t133 96.5l117 -129q-84 -91 -187.5 -140t-269.5 -49q-99 0 -191 35t-167.5 101t-121.5 175t-46 244zM317 635h566 q-15 128 -87.5 204t-187.5 76q-118 0 -194.5 -73t-96.5 -207zM528 1266l203 286h270l-288 -286h-185z" />
<glyph unicode="&#xea;" horiz-adv-x="1204" d="M92 530q0 274 142.5 421t379.5 147q120 0 217.5 -47t158 -125t92.5 -174t32 -199l-4 -88h-797q19 -147 102 -227t222 -80q107 0 188 38.5t133 96.5l117 -129q-84 -91 -187.5 -140t-269.5 -49q-99 0 -191 35t-167.5 101t-121.5 175t-46 244zM281 1284l254 270h145 l248 -270h-197l-125 135l-123 -135h-202zM317 635h566q-15 128 -87.5 204t-187.5 76q-118 0 -194.5 -73t-96.5 -207z" />
<glyph unicode="&#xeb;" horiz-adv-x="1204" d="M92 530q0 274 142.5 421t379.5 147q120 0 217.5 -47t158 -125t92.5 -174t32 -199l-4 -88h-797q19 -147 102 -227t222 -80q107 0 188 38.5t133 96.5l117 -129q-84 -91 -187.5 -140t-269.5 -49q-99 0 -191 35t-167.5 101t-121.5 175t-46 244zM291 1423q0 63 37 96t88 33 q52 0 89.5 -33t37.5 -96q0 -62 -37.5 -95.5t-89.5 -33.5q-50 0 -87.5 33.5t-37.5 95.5zM317 635h566q-15 128 -87.5 204t-187.5 76q-118 0 -194.5 -73t-96.5 -207zM692 1423q0 63 37 96t88 33q52 0 89.5 -33t37.5 -96q0 -62 -37.5 -95.5t-89.5 -33.5q-50 0 -87.5 33.5 t-37.5 95.5z" />
<glyph unicode="&#xec;" horiz-adv-x="499" d="M-123 1552h281l202 -286h-184zM143 0v1073h213v-1073h-213z" />
<glyph unicode="&#xed;" horiz-adv-x="499" d="M117 1266l202 286h271l-289 -286h-184zM143 0v1073h213v-1073h-213z" />
<glyph unicode="&#xee;" horiz-adv-x="499" d="M-74 1284l254 270h146l247 -270h-196l-125 135l-123 -135h-203zM143 0v1073h213v-1073h-213z" />
<glyph unicode="&#xef;" horiz-adv-x="499" d="M-76 1423q0 63 37 96t88 33q52 0 89.5 -33t37.5 -96q0 -62 -37.5 -95.5t-89.5 -33.5q-50 0 -87.5 33.5t-37.5 95.5zM143 0v1073h213v-1073h-213zM326 1423q0 63 37 96t88 33q52 0 89.5 -33t37.5 -96q0 -62 -37.5 -95.5t-89.5 -33.5q-50 0 -87.5 33.5t-37.5 95.5z" />
<glyph unicode="&#xf0;" horiz-adv-x="1275" d="M92 539q0 113 31.5 207t84.5 158t123 108.5t145.5 65t154.5 20.5q147 0 211 -49q-54 102 -174 219l-318 -119v141l207 78q-118 103 -242 184h271q57 -36 155 -116l279 104v-141l-170 -64q164 -172 249 -380.5t85 -409.5q0 -254 -143 -412t-398 -158q-84 0 -162.5 21 t-149.5 66t-124 110t-84 159.5t-31 207.5zM324 539q0 -184 80.5 -282.5t230.5 -98.5q156 0 241 96t85 285q0 184 -83 280t-235 96q-154 0 -236.5 -96t-82.5 -280z" />
<glyph unicode="&#xf1;" d="M164 0v1073h158l43 -139h8q63 76 152 120t188 44q170 0 271 -94.5t101 -272.5v-731h-215v702q0 118 -44 165.5t-132 47.5q-186 0 -315 -206v-709h-215zM219 1282q25 117 97.5 179.5t160.5 62.5q53 0 153 -38t138 -38q70 0 100 80h133q-26 -120 -84 -182t-159 -62 q-45 0 -148 38t-141 38q-82 0 -117 -78h-133z" />
<glyph unicode="&#xf2;" horiz-adv-x="1284" d="M92 537q0 113 31 207t84 158.5t124 109.5t149.5 65.5t162.5 20.5q105 0 201 -34t175 -100t126 -176.5t47 -250.5q0 -113 -31 -207.5t-84 -159t-123.5 -109.5t-149 -65.5t-161.5 -20.5q-84 0 -162.5 20.5t-149.5 65.5t-124 109.5t-84 159t-31 207.5zM281 1552h280 l203 -286h-184zM324 537q0 -179 83.5 -279t235.5 -100q151 0 234.5 100t83.5 279t-83.5 278.5t-234.5 99.5q-152 0 -235.5 -99.5t-83.5 -278.5z" />
<glyph unicode="&#xf3;" horiz-adv-x="1284" d="M92 537q0 -113 31 -207.5t84 -159t124 -109.5t149.5 -65.5t162.5 -20.5q83 0 161.5 20.5t149 65.5t123.5 109.5t84 159t31 207.5q0 140 -47 250.5t-126 176.5t-175 100t-201 34q-84 0 -162.5 -20.5t-149.5 -65.5t-124 -109.5t-84 -158.5t-31 -207zM324 537 q0 179 83.5 278.5t235.5 99.5q151 0 234.5 -99.5t83.5 -278.5t-83.5 -279t-234.5 -100q-152 0 -235.5 100t-83.5 279zM561 1266l203 286h270l-289 -286h-184z" />
<glyph unicode="&#xf4;" horiz-adv-x="1284" d="M92 537q0 -113 31 -207.5t84 -159t124 -109.5t149.5 -65.5t162.5 -20.5q83 0 161.5 20.5t149 65.5t123.5 109.5t84 159t31 207.5q0 140 -47 250.5t-126 176.5t-175 100t-201 34q-84 0 -162.5 -20.5t-149.5 -65.5t-124 -109.5t-84 -158.5t-31 -207zM317 1284l254 270h146 l248 -270h-197l-125 135l-123 -135h-203zM324 537q0 179 83.5 278.5t235.5 99.5q151 0 234.5 -99.5t83.5 -278.5t-83.5 -279t-234.5 -100q-152 0 -235.5 100t-83.5 279z" />
<glyph unicode="&#xf5;" horiz-adv-x="1284" d="M92 537q0 -113 31 -207.5t84 -159t124 -109.5t149.5 -65.5t162.5 -20.5q83 0 161.5 20.5t149 65.5t123.5 109.5t84 159t31 207.5q0 140 -47 250.5t-126 176.5t-175 100t-201 34q-84 0 -162.5 -20.5t-149.5 -65.5t-124 -109.5t-84 -158.5t-31 -207zM244 1307 q25 117 97.5 179t160.5 62q52 0 153 -37.5t138 -37.5q70 0 100 79h133q-26 -120 -84.5 -181.5t-159.5 -61.5q-45 0 -147.5 37.5t-140.5 37.5q-82 0 -117 -77h-133zM324 537q0 179 83.5 278.5t235.5 99.5q151 0 234.5 -99.5t83.5 -278.5t-83.5 -279t-234.5 -100 q-152 0 -235.5 100t-83.5 279z" />
<glyph unicode="&#xf6;" horiz-adv-x="1284" d="M92 537q0 -113 31 -207.5t84 -159t124 -109.5t149.5 -65.5t162.5 -20.5q83 0 161.5 20.5t149 65.5t123.5 109.5t84 159t31 207.5q0 140 -47 250.5t-126 176.5t-175 100t-201 34q-84 0 -162.5 -20.5t-149.5 -65.5t-124 -109.5t-84 -158.5t-31 -207zM289 1423q0 63 37 96 t88 33q52 0 89.5 -33t37.5 -96q0 -62 -37.5 -95.5t-89.5 -33.5q-50 0 -87.5 33.5t-37.5 95.5zM324 537q0 179 83.5 278.5t235.5 99.5q151 0 234.5 -99.5t83.5 -278.5t-83.5 -279t-234.5 -100q-152 0 -235.5 100t-83.5 279zM690 1423q0 63 37 96t88 33q52 0 89.5 -33 t37.5 -96q0 -62 -37.5 -95.5t-89.5 -33.5q-50 0 -87.5 33.5t-37.5 95.5z" />
<glyph unicode="&#xf7;" horiz-adv-x="1236" d="M143 453h951v190h-951v-190zM469 127q0 74 43.5 113t105.5 39t106 -39.5t44 -112.5q0 -75 -44 -114.5t-106 -39.5t-105.5 39.5t-43.5 114.5zM469 946q0 74 43.5 113t105.5 39t106 -39.5t44 -112.5q0 -75 -44 -114t-106 -39t-105.5 39t-43.5 114z" />
<glyph unicode="&#xf8;" horiz-adv-x="1284" d="M92 539q0 113 31 207t84 158t124 108.5t149.5 65t162.5 20.5q83 0 162 -21l104 197h224l-150 -281q209 -153 209 -454q0 -140 -47 -251t-126 -177.5t-175 -101t-201 -34.5q-84 0 -184 27l-121 -227h-225l170 319q-191 153 -191 445zM324 539q0 -154 57 -256l342 641 q-33 8 -80 8q-152 0 -235.5 -103.5t-83.5 -289.5zM539 156q50 -15 104 -15q151 3 234.5 107t83.5 291q0 170 -72 274z" />
<glyph unicode="&#xf9;" d="M164 379v694h215v-700q0 -111 57 -163t148 -52q53 0 104.5 15.5t103.5 60t78 112.5v727h215v-1073h-139l-63 139h-9q-55 -73 -133 -118.5t-176 -45.5q-85 0 -156.5 24t-127 71.5t-86.5 126.5t-31 182zM246 1552h280l203 -286h-184z" />
<glyph unicode="&#xfa;" d="M164 379v694h215v-700q0 -111 57 -163t148 -52q53 0 104.5 15.5t103.5 60t78 112.5v727h215v-1073h-139l-63 139h-9q-55 -73 -133 -118.5t-176 -45.5q-85 0 -156.5 24t-127 71.5t-86.5 126.5t-31 182zM528 1266l203 286h270l-288 -286h-185z" />
<glyph unicode="&#xfb;" d="M164 379v694h215v-700q0 -111 57 -163t148 -52q53 0 104.5 15.5t103.5 60t78 112.5v727h215v-1073h-139l-63 139h-9q-55 -73 -133 -118.5t-176 -45.5q-85 0 -156.5 24t-127 71.5t-86.5 126.5t-31 182zM299 1284l254 270h145l248 -270h-196l-125 135l-123 -135h-203z" />
<glyph unicode="&#xfc;" d="M164 379v694h215v-700q0 -111 57 -163t148 -52q53 0 104.5 15.5t103.5 60t78 112.5v727h215v-1073h-139l-63 139h-9q-55 -73 -133 -118.5t-176 -45.5q-85 0 -156.5 24t-127 71.5t-86.5 126.5t-31 182zM270 1423q0 63 37 96t88 33q52 0 89.5 -33t37.5 -96 q0 -62 -37.5 -95.5t-89.5 -33.5q-50 0 -87.5 33.5t-37.5 95.5zM672 1423q0 63 37 96t88 33q52 0 89.5 -33t37.5 -96q0 -62 -37.5 -95.5t-89.5 -33.5q-50 0 -87.5 33.5t-37.5 95.5z" />
<glyph unicode="&#xfd;" horiz-adv-x="1251" d="M90 1073h246l303 -858l283 858h249l-426 -1145q-49 -132 -153.5 -208t-253.5 -76q-34 0 -69 5.5t-53 10.5l-19 6l43 170q49 -18 100 -18q123 0 162 112l24 70zM528 1266l203 286h270l-288 -286h-185z" />
<glyph unicode="&#xfe;" horiz-adv-x="1226" d="M143 -387v1927h217v-491q110 49 252 49q76 0 149 -20.5t141 -65.5t119.5 -109t82.5 -158.5t31 -207.5t-31 -207.5t-82.5 -159t-119.5 -109.5t-141 -65.5t-149 -20.5q-140 0 -252 50v-412h-217zM360 211q96 -53 226 -53q150 0 233.5 100t83.5 279t-83.5 278.5t-233.5 99.5 q-126 0 -226 -55v-649z" />
<glyph unicode="&#xff;" horiz-adv-x="1251" d="M90 1073h246l303 -858l283 858h249l-426 -1145q-49 -132 -153.5 -208t-253.5 -76q-34 0 -69 5.5t-53 10.5l-19 6l43 170q49 -18 100 -18q123 0 162 112l24 70zM272 1423q0 63 37 96t88 33q52 0 89.5 -33t37.5 -96q0 -62 -37.5 -95.5t-89.5 -33.5q-50 0 -87.5 33.5 t-37.5 95.5zM674 1423q0 63 37 96t88 33q52 0 89.5 -33t37.5 -96q0 -62 -37.5 -95.5t-89.5 -33.5q-50 0 -87.5 33.5t-37.5 95.5z" />
<glyph unicode="&#x152;" horiz-adv-x="1910" d="M174 719q0 145 40 265.5t108 202t158 138.5t188.5 83t201.5 26h867v-191h-639v-420h559v-190h-559v-443h639v-190h-867q-103 0 -201.5 26.5t-188.5 84t-158 140t-108 203t-40 265.5zM410 719q0 -252 127 -392.5t333 -140.5v1071q-205 0 -332.5 -143.5t-127.5 -394.5z" />
<glyph unicode="&#x153;" horiz-adv-x="2205" d="M147 539q0 113 31 207t83.5 158t123 108.5t149 65t162.5 20.5q140 0 264.5 -74t186.5 -199q55 126 175.5 199.5t270.5 73.5q232 0 363 -158.5t131 -421.5v-51h-801q30 -160 111.5 -234.5t218.5 -74.5q94 0 177.5 36t145.5 95l111 -127q-88 -91 -194 -139t-259 -48 q-135 0 -263.5 69t-184.5 177q-67 -111 -189 -178.5t-264 -67.5q-84 0 -162.5 21t-149 66t-123 110t-83.5 159.5t-31 207.5zM373 539q0 -184 81 -282.5t232 -98.5q160 0 246 96.5t86 284.5q0 184 -83.5 280t-238.5 96q-156 0 -239.5 -95.5t-83.5 -280.5zM1286 633h584 q-22 146 -91 214t-192 68q-129 0 -199 -65.5t-102 -216.5z" />
<glyph unicode="&#x178;" horiz-adv-x="1208" d="M0 1434h258l356 -658l355 658h239l-493 -859v-575h-221v575zM270 1784q0 63 37 96t88 33q52 0 89.5 -33t37.5 -96q0 -62 -37.5 -95.5t-89.5 -33.5q-50 0 -87.5 33.5t-37.5 95.5zM672 1784q0 63 37 96t88 33q52 0 89.5 -33t37.5 -96q0 -62 -37.5 -95.5t-89.5 -33.5 q-50 0 -87.5 33.5t-37.5 95.5z" />
<glyph unicode="&#x2c6;" horiz-adv-x="614" d="M-16 1284l254 270h145l248 -270h-197l-125 135l-123 -135h-202z" />
<glyph unicode="&#x2dc;" horiz-adv-x="864" d="M41 1282q25 117 97.5 179.5t160.5 62.5q53 0 153 -38t138 -38q70 0 100 80h133q-26 -120 -84 -182t-159 -62q-45 0 -148 38t-141 38q-82 0 -117 -78h-133z" />
<glyph unicode="&#x2000;" horiz-adv-x="968" />
<glyph unicode="&#x2001;" horiz-adv-x="1937" />
<glyph unicode="&#x2002;" horiz-adv-x="968" />
<glyph unicode="&#x2003;" horiz-adv-x="1937" />
<glyph unicode="&#x2004;" horiz-adv-x="645" />
<glyph unicode="&#x2005;" horiz-adv-x="484" />
<glyph unicode="&#x2006;" horiz-adv-x="322" />
<glyph unicode="&#x2007;" horiz-adv-x="322" />
<glyph unicode="&#x2008;" horiz-adv-x="242" />
<glyph unicode="&#x2009;" horiz-adv-x="387" />
<glyph unicode="&#x200a;" horiz-adv-x="107" />
<glyph unicode="&#x2010;" horiz-adv-x="925" d="M164 508v190h598v-190h-598z" />
<glyph unicode="&#x2011;" horiz-adv-x="925" d="M164 508v190h598v-190h-598z" />
<glyph unicode="&#x2012;" horiz-adv-x="925" d="M164 508v190h598v-190h-598z" />
<glyph unicode="&#x2013;" horiz-adv-x="1208" d="M147 510v180h920v-180h-920z" />
<glyph unicode="&#x2014;" horiz-adv-x="1837" d="M145 510v180h1555v-180h-1555z" />
<glyph unicode="&#x2018;" horiz-adv-x="563" d="M133 1126q0 204 225 336q0 1 17.5 -15.5t34.5 -32.5l18 -17q-4 -4 -11 -10t-25.5 -24.5t-32.5 -35.5t-27 -38.5t-15 -37.5q44 -2 78.5 -39.5t34.5 -99.5q0 -71 -41 -108t-100 -37q-64 0 -110 44t-46 115z" />
<glyph unicode="&#x2019;" horiz-adv-x="563" d="M133 1313q0 71 41 108t100 37q64 0 110 -44.5t46 -115.5q0 -203 -225 -335q0 -1 -17.5 15.5t-35.5 33.5l-17 16q4 4 11 10t25.5 24.5t32.5 35.5t27 38.5t15 37.5q-44 2 -78.5 39.5t-34.5 99.5z" />
<glyph unicode="&#x201a;" horiz-adv-x="563" d="M133 121q0 71 41 108t100 37q64 0 110 -44.5t46 -115.5q0 -203 -225 -335q0 -1 -17.5 15.5t-35.5 33.5l-17 16q4 4 11 10t25.5 24.5t32.5 35.5t27 38.5t15 37.5q-44 2 -78.5 39.5t-34.5 99.5z" />
<glyph unicode="&#x201c;" horiz-adv-x="1013" d="M143 1120q0 203 226 336q0 1 17.5 -15.5t34.5 -32.5l17 -17q-11 -10 -28.5 -26.5t-47.5 -55.5t-34 -64q43 -2 77.5 -39.5t34.5 -99.5q0 -71 -41 -108t-100 -37q-64 0 -110 44t-46 115zM575 1120q0 203 226 336q0 1 17.5 -15.5t34.5 -32.5l17 -17q-11 -10 -28.5 -26.5 t-47.5 -55.5t-34 -64q43 -2 77.5 -39.5t34.5 -99.5q0 -71 -41 -108t-100 -37q-64 0 -110 44t-46 115z" />
<glyph unicode="&#x201d;" horiz-adv-x="1013" d="M143 1313q0 71 41.5 108t100.5 37q64 0 109.5 -44.5t45.5 -115.5q0 -203 -225 -335q0 -1 -17.5 15.5t-35.5 33.5l-17 16q4 4 11 10t25.5 24.5t32.5 35.5t27 38.5t15 37.5q-44 2 -78.5 39.5t-34.5 99.5zM575 1313q0 71 41.5 108t100.5 37q64 0 109.5 -44.5t45.5 -115.5 q0 -203 -225 -335q0 -1 -17.5 15.5t-34.5 33.5l-17 16q11 10 28.5 26.5t47.5 55.5t34 64q-44 2 -78.5 39.5t-34.5 99.5z" />
<glyph unicode="&#x201e;" horiz-adv-x="1013" d="M143 121q0 71 41.5 108t100.5 37q64 0 109.5 -44.5t45.5 -115.5q0 -203 -225 -335q0 -1 -17.5 15.5t-35.5 33.5l-17 16q4 4 11 10t25.5 24.5t32.5 35.5t27 38.5t15 37.5q-44 2 -78.5 39.5t-34.5 99.5zM573 121q0 71 41.5 108t100.5 37q64 0 109.5 -44.5t45.5 -115.5 q0 -203 -225 -335q0 -1 -17.5 15.5t-35.5 33.5l-17 16q4 4 11 10t25.5 24.5t32.5 35.5t27 38.5t15 37.5q-44 2 -78.5 39.5t-34.5 99.5z" />
<glyph unicode="&#x2022;" horiz-adv-x="534" d="M133 598q0 68 38.5 102.5t94.5 34.5t95.5 -35t39.5 -102q0 -66 -39.5 -101.5t-95.5 -35.5q-55 0 -94 35.5t-39 101.5z" />
<glyph unicode="&#x2026;" horiz-adv-x="1634" d="M143 127q0 73 44 112.5t106 39.5t105.5 -39t43.5 -113q0 -75 -43.5 -114.5t-105.5 -39.5t-106 39.5t-44 114.5zM668 127q0 74 43.5 113t105.5 39t106 -39.5t44 -112.5q0 -75 -44 -114.5t-106 -39.5t-105.5 39.5t-43.5 114.5zM1192 127q0 74 43.5 113t105.5 39t106 -39.5 t44 -112.5q0 -75 -44 -114.5t-106 -39.5t-105.5 39.5t-43.5 114.5z" />
<glyph unicode="&#x202f;" horiz-adv-x="387" />
<glyph unicode="&#x2039;" horiz-adv-x="690" d="M72 659v97l405 487l137 -104l-358 -432l356 -431l-133 -106z" />
<glyph unicode="&#x203a;" horiz-adv-x="690" d="M70 1139l137 104l405 -487v-97l-407 -489l-133 106l354 431z" />
<glyph unicode="&#x205f;" horiz-adv-x="484" />
<glyph unicode="&#x20ac;" horiz-adv-x="1404" d="M10 442v191h148q-2 23 -2 69q0 43 4 113h-150v191h185q45 151 140.5 254.5t216 150.5t261.5 47q278 0 490 -184l-119 -160q-81 74 -165 113t-200 39q-303 0 -387 -260h678l-74 -191h-637q-2 -29 -2 -92t4 -90h578l-66 -191h-473q46 -132 140.5 -203t232.5 -71 q120 0 205 38.5t166 112.5l121 -165q-45 -37 -82.5 -62t-98 -55.5t-139.5 -46t-172 -15.5q-143 0 -265 48.5t-217.5 155.5t-140.5 263h-180z" />
<glyph unicode="&#x2122;" horiz-adv-x="1800" d="M61 1280v143h660v-143h-252v-688h-158v688h-250zM813 592v831h141l297 -598l293 598h139v-831h-157v481l-242 -481h-82l-237 479v-479h-152z" />
<glyph unicode="&#xe000;" horiz-adv-x="1075" d="M0 0v1075h1075v-1075h-1075z" />
<glyph unicode="&#xfb01;" horiz-adv-x="1351" d="M82 905v168h154v172q0 151 92 235.5t260 84.5q39 0 79.5 -5.5t61.5 -11.5l21 -6l-41 -156q-48 11 -103 11q-66 0 -110.5 -36t-44.5 -101v-187h258v-168h-258v-905h-215v905h-154zM936 1425q0 68 39.5 104t95.5 36q57 0 97 -36t40 -104t-40 -103.5t-97 -35.5 q-56 0 -95.5 35.5t-39.5 103.5zM965 0v1073h215v-1073h-215z" />
<glyph unicode="&#xfb02;" horiz-adv-x="1357" d="M82 905v168h154v172q0 151 92 235.5t260 84.5q39 0 79.5 -5.5t61.5 -11.5l21 -6l-41 -156q-48 11 -103 11q-66 0 -110.5 -36t-44.5 -101v-187h258v-168h-258v-905h-215v905h-154zM967 0v1540h217v-1540h-217z" />
</font>
</defs>
</svg>
