<?xml version="1.0" standalone="no"?>
<!DOCTYPE svg PUBLIC "-//W3C//DTD SVG 1.1//EN" "http://www.w3.org/Graphics/SVG/1.1/DTD/svg11.dtd" >
<svg xmlns="http://www.w3.org/2000/svg">
<metadata></metadata>
<defs>
<font id="motiva_sansbold" horiz-adv-x="1249" >
<font-face units-per-em="2048" ascent="1638" descent="-410" />
<missing-glyph horiz-adv-x="573" />
<glyph horiz-adv-x="2048" />
<glyph horiz-adv-x="2048" />
<glyph unicode="&#xd;" horiz-adv-x="2048" />
<glyph unicode=" "  horiz-adv-x="573" />
<glyph unicode="&#x09;" horiz-adv-x="573" />
<glyph unicode="&#xa0;" horiz-adv-x="573" />
<glyph unicode="!" horiz-adv-x="606" d="M125 150q0 84 49 128t121 44t121 -44t49 -128q0 -86 -49 -130.5t-121 -44.5t-121 44.5t-49 130.5zM145 1432h308l-41 -967h-226z" />
<glyph unicode="&#x22;" horiz-adv-x="833" d="M117 1540h264l-37 -500h-190zM430 1540h264l-37 -500h-190z" />
<glyph unicode="#" horiz-adv-x="1318" d="M66 414v217h256l28 217h-246v215h273l51 371h242l-49 -371h157l45 371h244l-47 -371h233v-215h-256l-26 -217h243v-217h-268l-49 -414h-246l51 414h-161l-52 -414h-245l51 414h-229zM567 631h158l29 217h-160z" />
<glyph unicode="$" horiz-adv-x="1300" d="M133 223l121 189q191 -144 416 -144q124 0 176.5 38t52.5 93q0 30 -31.5 55.5t-83.5 43.5t-118 39.5t-134.5 43t-134.5 55t-118 74t-83.5 102t-31.5 136.5q0 150 96.5 248t269.5 123l-6 197h234l-6 -199q112 -18 214.5 -70t161.5 -104l-129 -182q-60 57 -153.5 93 t-204.5 36q-101 0 -155 -34t-54 -87q0 -37 40.5 -68t105.5 -55t143 -49.5t156.5 -58t143.5 -73t105.5 -102.5t40.5 -139q0 -145 -94 -245.5t-280 -127.5l6 -223h-234l6 223q-132 18 -254 65t-184 107z" />
<glyph unicode="%" horiz-adv-x="1843" d="M131 1057q0 90 26.5 157.5t73.5 107t104.5 58.5t125.5 19q142 0 230.5 -83.5t88.5 -258.5q0 -89 -25 -156t-69.5 -106.5t-100.5 -58.5t-124 -19t-125.5 19t-104.5 58t-73.5 106.5t-26.5 156.5zM238 0l1032 1413h280l-1032 -1413h-280zM346 1057q0 -65 30 -101t83 -36 q51 0 78.5 35.5t27.5 101.5q0 67 -27.5 103t-78.5 36q-53 0 -83 -36t-30 -103zM973 317q0 89 26 156.5t72.5 107t103.5 59t125 19.5q141 0 230.5 -84t89.5 -258q0 -89 -25 -156t-70 -106.5t-101 -58.5t-124 -19t-125 19t-103.5 58t-72.5 106.5t-26 156.5zM1188 317 q0 -66 28.5 -101.5t81.5 -35.5q52 0 79.5 35.5t27.5 101.5q0 138 -107 138q-53 0 -81.5 -35.5t-28.5 -102.5z" />
<glyph unicode="&#x26;" horiz-adv-x="1607" d="M188 340q0 83 41 158.5t99 128.5t141 106q-158 191 -158 336q0 92 34.5 164.5t93.5 116.5t133.5 67t158.5 23q79 0 150 -20t130.5 -60t94.5 -109t35 -159q0 -93 -39.5 -172t-96 -131.5t-139.5 -104.5l189 -201q74 106 159 283l230 -123q-106 -226 -203 -352l275 -291 h-347l-106 98q-153 -121 -377 -121q-221 0 -359.5 100.5t-138.5 262.5zM473 369q0 -72 55.5 -114t151.5 -42q103 0 205 82l-248 256q-81 -51 -122.5 -93t-41.5 -89zM578 1059q0 -69 116 -191q183 116 183 211q0 52 -40.5 86.5t-99.5 34.5q-67 0 -113 -38t-46 -103z" />
<glyph unicode="'" horiz-adv-x="481" d="M102 1540h265l-37 -500h-193z" />
<glyph unicode="(" horiz-adv-x="759" d="M119 696q0 124 24 240.5t63 202.5t85.5 161t93 125t85.5 86.5t63 52.5l24 17l135 -123q-16 -14 -40.5 -38.5t-79.5 -98t-97 -155.5t-76 -209.5t-34 -260.5q0 -101 18 -198.5t47 -172.5t64.5 -142t70.5 -114t64 -81.5t47 -51.5l18 -16l-137 -121q-9 6 -25 17.5t-61.5 53.5 t-86.5 90t-91.5 127t-87 164.5t-61.5 203t-25 241.5z" />
<glyph unicode=")" horiz-adv-x="759" d="M100 1456l142 125q9 -6 25 -17t61.5 -51.5t87 -87.5t92.5 -124.5t87.5 -162t61.5 -201.5t25 -241t-24.5 -241t-63 -204t-85.5 -163.5t-94 -128t-85.5 -89t-63.5 -54.5l-24 -17l-140 121l4 4q157 143 245 354q83 197 83 418q0 100 -18 195.5t-45.5 167.5t-64 138 t-69 109.5t-65.5 79.5t-49 50.5t-23 19.5z" />
<glyph unicode="*" horiz-adv-x="933" d="M135 1272l105 176l145 -125l-33 193h203l-35 -193l150 125l102 -176l-178 -66l178 -63l-102 -176l-150 123l35 -189h-203l33 189l-145 -123l-103 176l178 63z" />
<glyph unicode="+" horiz-adv-x="1464" d="M203 580v237h391v412h237v-412h392v-237h-392v-412h-237v412h-391z" />
<glyph unicode="," horiz-adv-x="563" d="M92 -125q11 8 49.5 47.5t57.5 67.5q-40 17 -67.5 56t-27.5 97q0 81 47.5 123.5t114.5 42.5q73 0 124.5 -49.5t51.5 -130.5q0 -94 -59 -183t-174 -163z" />
<glyph unicode="-" horiz-adv-x="925" d="M139 481v238h623v-238h-623z" />
<glyph unicode="." horiz-adv-x="565" d="M104 150q0 84 49.5 128t120.5 44q72 0 121 -44t49 -128q0 -86 -49 -130.5t-121 -44.5q-71 0 -120.5 45t-49.5 130z" />
<glyph unicode="/" horiz-adv-x="1224" d="M106 0l744 1413h260l-743 -1413h-261z" />
<glyph unicode="0" horiz-adv-x="1517" d="M117 711q0 148 32.5 269.5t90 205.5t137 141.5t172.5 84t199 26.5q132 0 241.5 -43.5t193 -129.5t130.5 -227.5t47 -326.5q0 -186 -47 -328.5t-130.5 -230t-193 -131.5t-241.5 -44q-133 0 -245 44t-199.5 131.5t-137 230.5t-49.5 328zM403 711q0 -243 87 -368.5 t258 -125.5q325 0 325 494q0 241 -79 364t-246 123q-171 0 -258 -124.5t-87 -362.5z" />
<glyph unicode="1" horiz-adv-x="858" d="M-10 1077l432 336h190v-1413h-278v1024l-197 -145z" />
<glyph unicode="2" horiz-adv-x="1314" d="M111 1237q234 201 497 201q237 0 378.5 -121.5t141.5 -315.5q0 -81 -32.5 -166.5t-84 -160.5t-127.5 -155t-149 -144t-162 -133h592v-242h-1005v221q168 130 286 230.5t212 199t140 181t46 153.5q0 101 -62 157t-174 56q-95 0 -186.5 -42.5t-159.5 -104.5z" />
<glyph unicode="3" horiz-adv-x="1353" d="M102 178l152 191q199 -152 371 -152q142 0 216 64.5t74 154.5q0 195 -297 195h-157v241h127q125 0 196.5 44t71.5 126q0 69 -54.5 112.5t-168.5 43.5q-150 0 -328 -158l-162 177q235 221 504 221q121 0 217.5 -30t156.5 -81.5t91 -116t31 -137.5q0 -89 -47.5 -167.5 t-124.5 -125.5q104 -41 167.5 -130.5t63.5 -211.5q0 -203 -158.5 -332t-408.5 -129q-283 0 -533 201z" />
<glyph unicode="4" horiz-adv-x="1396" d="M117 356v217l731 844h207v-819h198v-242h-198v-356h-273v356h-665zM463 598h319v375z" />
<glyph unicode="5" horiz-adv-x="1304" d="M104 156l142 192q7 -6 20.5 -15.5t53.5 -33.5t79 -43t90.5 -34t94.5 -15q136 0 210 81t74 208q0 137 -63 203.5t-176 66.5q-87 0 -153 -43t-105 -94h-181v784h871v-242h-604v-241q112 53 229 53q93 0 175.5 -28.5t149 -84.5t105.5 -148.5t39 -209.5q0 -150 -63.5 -270 t-190.5 -192.5t-297 -72.5q-290 0 -500 179z" />
<glyph unicode="6" horiz-adv-x="1382" d="M115 674q0 764 651 764q133 0 232.5 -40t211.5 -120l-143 -191q-155 111 -287 111q-159 0 -258.5 -94t-115.5 -299q147 106 350 106q69 0 135 -17t127.5 -54t108 -90t74.5 -131.5t28 -172.5q0 -139 -72 -247.5t-189 -165t-255 -56.5q-295 0 -446.5 174t-151.5 523z M414 539q3 -153 81.5 -237.5t200.5 -84.5q118 0 182 61.5t64 167.5q0 103 -54 163.5t-147 60.5q-102 0 -192 -38t-135 -93z" />
<glyph unicode="7" horiz-adv-x="1265" d="M115 1178v239h1003v-225l-561 -1192h-295l563 1178h-710z" />
<glyph unicode="8" horiz-adv-x="1349" d="M115 412q0 255 221 352q-82 42 -135.5 113.5t-53.5 162.5q0 173 143 285.5t363 112.5q217 0 360.5 -109t143.5 -268q0 -106 -48.5 -182.5t-129.5 -116.5q219 -98 219 -350q0 -82 -39.5 -160.5t-109 -139.5t-173.5 -98t-223 -37q-122 0 -225 37t-170.5 98.5t-105 139 t-37.5 160.5zM395 434q0 -95 66 -156t192 -61q125 0 190.5 61t65.5 156q0 91 -65 146t-191 55t-192 -55t-66 -146zM434 1038q0 -80 61.5 -120.5t157.5 -40.5q97 0 158 40t61 121q0 74 -56.5 117t-162.5 43t-162.5 -43t-56.5 -117z" />
<glyph unicode="9" horiz-adv-x="1382" d="M115 967q0 140 72.5 249t190 165.5t255.5 56.5q295 0 445.5 -174.5t150.5 -524.5q0 -176 -35 -310.5t-93.5 -219t-143.5 -137.5t-177 -74t-202 -21q-131 0 -232 40t-211 118l144 193q151 -111 286 -111q76 0 139 21.5t113.5 67t82 122.5t38.5 182q-150 -108 -348 -108 q-69 0 -136 17t-128.5 54.5t-108 90.5t-74.5 131.5t-28 171.5zM401 967q0 -102 54.5 -163t148.5 -61q104 0 194.5 37.5t133.5 93.5q-1 157 -80 240.5t-203 83.5q-118 0 -183 -62.5t-65 -168.5z" />
<glyph unicode=":" horiz-adv-x="559" d="M104 147q0 84 48.5 127t119.5 43q72 0 120 -43t48 -127t-48.5 -128t-119.5 -44q-70 0 -119 44t-49 128zM104 926q0 83 49 126.5t119 43.5q71 0 119.5 -43.5t48.5 -126.5q0 -85 -48 -127.5t-120 -42.5q-71 0 -119.5 42.5t-48.5 127.5z" />
<glyph unicode=";" horiz-adv-x="563" d="M92 -125l117 -92q115 74 174 163t59 183q0 81 -51.5 130.5t-124.5 49.5q-67 0 -114.5 -42.5t-47.5 -123.5q0 -58 27.5 -97t67.5 -56q-19 -28 -57.5 -67.5t-49.5 -47.5zM104 926q0 82 49.5 126t116.5 44q72 0 122 -43.5t50 -126.5q0 -85 -49.5 -127.5t-122.5 -42.5 q-67 0 -116.5 43t-49.5 127z" />
<glyph unicode="&#x3c;" horiz-adv-x="1153" d="M109 621v159l751 465q24 -47 60 -98l53 -86l-582 -363q45 -28 104 -65.5t128 -82t100 -63.5q34 -20 123 -74.5t127 -76.5l-66 -103q-5 -10 -24.5 -40.5t-24.5 -40.5z" />
<glyph unicode="=" horiz-adv-x="1380" d="M190 350v228h959v-228h-959zM190 711v229h959v-229h-959z" />
<glyph unicode="&#x3e;" horiz-adv-x="1153" d="M96 336l584 362l-584 363l113 184l749 -467v-157l-749 -469z" />
<glyph unicode="?" horiz-adv-x="1124" d="M55 1270q84 68 199 119t248 51q206 0 337.5 -100t131.5 -248q0 -68 -20 -120.5t-52.5 -86.5t-71 -64.5t-77.5 -63.5t-71.5 -73t-52.5 -104t-20 -146h-268q0 101 19.5 182t50 132.5t68 92t75 68t68 52.5t50 53.5t19.5 62.5q0 57 -50 89t-128 32q-169 0 -320 -135zM305 150 q0 84 49.5 128t120.5 44q72 0 121 -44t49 -128q0 -86 -49 -130.5t-121 -44.5q-71 0 -120.5 45t-49.5 130z" />
<glyph unicode="@" horiz-adv-x="2039" d="M168 442q0 174 76.5 333t206 274.5t309 184.5t377.5 69q174 0 317 -55t234 -148t140.5 -211t49.5 -248q0 -73 -18 -148.5t-58.5 -151t-98 -134t-144.5 -95t-191 -36.5q-33 0 -81.5 19.5t-80.5 38.5l-32 20q-118 -78 -240 -78q-63 0 -120.5 21.5t-105.5 63t-77 110 t-29 155.5q0 109 42.5 196t115.5 142t167.5 84t202.5 29q84 0 155.5 -19t113.5 -41l-70 -520q11 -22 25.5 -28.5t38.5 -6.5q114 0 174.5 99.5t60.5 275.5q0 94 -30.5 175.5t-89.5 144t-153 98t-214 35.5q-135 0 -263.5 -46t-232 -129.5t-166.5 -214.5t-63 -288 q0 -130 43 -226.5t123.5 -155t188.5 -86.5t245 -28q123 0 334 41l32 -205q-248 -47 -383 -47q-88 0 -169 9t-166 32.5t-156.5 60t-135.5 94.5t-108 133t-70 179t-26 229zM840 446q0 -80 39 -122.5t102 -42.5q24 0 56 14.5t51 29.5l20 15l47 348h-41q-74 0 -129.5 -22 t-85.5 -58.5t-44.5 -77t-14.5 -84.5z" />
<glyph unicode="A" horiz-adv-x="1454" d="M53 0l533 1434h252l534 -1434h-311l-96 281h-529l-92 -281h-291zM522 526h361l-181 523z" />
<glyph unicode="B" horiz-adv-x="1300" d="M141 0v1434h461q240 0 360.5 -99t120.5 -282q0 -83 -38 -149.5t-97 -108.5q34 -14 66.5 -35.5t65 -55t57 -73t40 -94t15.5 -115.5q0 -88 -27.5 -160t-75 -120t-113 -80.5t-139 -47t-155.5 -14.5h-541zM418 246h244q118 0 178.5 50t60.5 132q0 83 -53 130.5t-168 47.5 h-262v-360zM418 852h184q104 0 158.5 46t54.5 122q0 94 -55.5 131t-163.5 37h-178v-336z" />
<glyph unicode="C" horiz-adv-x="1351" d="M84 719q0 186 54.5 330.5t148 232t211 132t252.5 44.5q92 0 174.5 -20t147.5 -56t102 -63t79 -64l-153 -190q-69 62 -161.5 105.5t-188.5 43.5q-188 0 -282.5 -127t-94.5 -368q0 -231 104.5 -365.5t272.5 -134.5q193 0 376 168l150 -201q-253 -211 -526 -211 q-107 0 -204 27.5t-181.5 87t-147 145.5t-98 210.5t-35.5 273.5z" />
<glyph unicode="D" horiz-adv-x="1466" d="M123 0v1434h493q107 0 205.5 -23.5t189 -77.5t157 -133.5t106 -200.5t39.5 -270t-39.5 -272.5t-106 -207t-156.5 -140.5t-189.5 -83t-205.5 -26h-493zM399 246h185q206 0 322 123t116 360q0 231 -115 345t-323 114h-185v-942z" />
<glyph unicode="E" horiz-adv-x="1234" d="M152 0v1434h948v-246h-672v-338h594v-246h-594v-358h672v-246h-948z" />
<glyph unicode="F" horiz-adv-x="1101" d="M121 -2v1434h909v-248h-633v-355h555v-245h-555v-586h-276z" />
<glyph unicode="G" horiz-adv-x="1517" d="M123 719q0 186 56.5 330.5t154 232t220.5 132t265 44.5q277 0 508 -203l-149 -200q-86 78 -167 118.5t-186 40.5q-206 0 -308.5 -127t-102.5 -368t95.5 -370.5t278.5 -129.5q76 0 149.5 22t109.5 44l36 22v256h-321v246h598v-637q-8 -8 -23 -21.5t-69 -47.5t-115.5 -59.5 t-161.5 -47t-207 -21.5t-203.5 27.5t-180.5 87t-145.5 146t-96.5 210t-35 273.5z" />
<glyph unicode="H" horiz-adv-x="1441" d="M123 0v1434h276v-582h613v582h278v-1434h-278v606h-613v-606h-276z" />
<glyph unicode="I" horiz-adv-x="636" d="M174 0v1434h277v-1434h-277z" />
<glyph unicode="J" horiz-adv-x="999" d="M57 10l21 234q78 -25 139 -25q62 0 106.5 6.5t84.5 24t64 49t38 82t14 121.5v932h277v-961q0 -119 -28.5 -208t-76 -143.5t-118 -88t-144.5 -46t-166 -12.5q-55 0 -107.5 8.5t-78.5 17.5z" />
<glyph unicode="K" horiz-adv-x="1423" d="M182 0v1434h279v-543l489 543h359l-647 -682l688 -752h-363l-524 573l-2 -2v-571h-279z" />
<glyph unicode="L" horiz-adv-x="1177" d="M150 0v1434h276v-1188h627v-246h-903z" />
<glyph unicode="M" horiz-adv-x="1792" d="M127 0v1434h242l518 -1031l499 1031h248v-1434h-276v780l-410 -780h-143l-410 784v-784h-268z" />
<glyph unicode="N" horiz-adv-x="1466" d="M129 0v1434h227l680 -930v930h277v-1434h-234l-682 924v-924h-268z" />
<glyph unicode="O" horiz-adv-x="1662" d="M133 719q0 149 39.5 273t107 209t157.5 144t190 86t207 27q106 0 205.5 -27t189 -86t156 -144t106 -209t39.5 -273t-39.5 -273.5t-106 -210t-156 -145.5t-189 -87.5t-205.5 -27.5q-107 0 -207 27.5t-190 87.5t-157.5 145.5t-107 210t-39.5 273.5zM424 721 q0 -236 107.5 -369t293.5 -133q192 0 303 131t111 371q0 235 -108.5 364t-296.5 129q-190 0 -300 -129t-110 -364z" />
<glyph unicode="P" horiz-adv-x="1169" d="M152 0v1434h444q266 0 392 -121t126 -334q0 -95 -31.5 -176.5t-94 -146t-166 -101.5t-238.5 -37h-156v-518h-276zM428 764h156q124 0 181.5 56.5t57.5 172.5q0 95 -64.5 145t-174.5 50h-156v-424z" />
<glyph unicode="Q" horiz-adv-x="1681" d="M125 719q0 149 39.5 273t106.5 209t157.5 144t190 86t206.5 27q105 0 204.5 -27t189.5 -86t157 -144t106.5 -209t39.5 -273q0 -230 -89.5 -393.5t-240.5 -253.5l283 -125l-129 -228l-527 256q-106 1 -205 29t-188.5 87.5t-156 145t-105.5 210t-39 272.5zM416 719 q0 -236 108.5 -368t296.5 -132q104 0 184.5 41.5t128.5 112.5t72.5 158.5t24.5 187.5q0 235 -109.5 365t-296.5 130q-190 0 -299.5 -130t-109.5 -365z" />
<glyph unicode="R" horiz-adv-x="1308" d="M143 0v1434h510q518 0 518 -451q0 -129 -71 -228.5t-187 -156.5l361 -598h-316l-313 522h-225v-522h-277zM420 768h225q118 0 183 64.5t65 150.5q0 98 -68 151.5t-190 53.5h-215v-420z" />
<glyph unicode="S" horiz-adv-x="1169" d="M57 147l113 226q72 -59 193.5 -106.5t199.5 -47.5q126 0 184 50.5t58 127.5q0 46 -39 82.5t-101 64t-136.5 55.5t-149.5 64.5t-137 83.5t-101 120.5t-39 166.5q0 124 63.5 221.5t171.5 150t241 52.5q258 0 471 -160l-125 -219q-171 135 -342 135q-101 0 -153 -43.5 t-52 -117.5q0 -38 24.5 -71t65.5 -58.5t94 -49.5t112 -48.5t118 -51.5t112 -62.5t94 -77t65.5 -99t24.5 -125.5q0 -89 -35.5 -168t-100.5 -138.5t-163.5 -94t-216.5 -34.5q-139 0 -286 53t-228 119z" />
<glyph unicode="T" horiz-adv-x="1288" d="M61 1188v246h1139v-246h-430v-1188h-278v1188h-431z" />
<glyph unicode="U" horiz-adv-x="1388" d="M123 522v912h276v-926q0 -137 73.5 -213t209.5 -76q135 0 207 75.5t72 213.5v926h276v-912q0 -118 -30 -212.5t-81.5 -156t-123.5 -102.5t-151 -58.5t-169 -17.5t-169.5 17.5t-152 58.5t-124.5 102.5t-82.5 156t-30.5 212.5z" />
<glyph unicode="V" horiz-adv-x="1372" d="M-29 1434h310l401 -1059l399 1059h291l-575 -1434h-250z" />
<glyph unicode="W" horiz-adv-x="2125" d="M80 1434h289l272 -961l287 961h239l293 -965l266 965h275l-440 -1450h-203l-318 1011l-315 -1011h-205z" />
<glyph unicode="X" horiz-adv-x="1366" d="M-2 0l496 750l-476 684h332l303 -465l295 465h338l-483 -684l538 -750h-331l-361 522l-332 -522h-319z" />
<glyph unicode="Y" horiz-adv-x="1290" d="M2 1434h315l324 -598l324 598h297l-494 -861v-573h-272v575z" />
<glyph unicode="Z" horiz-adv-x="1312" d="M92 0v201l713 987h-668v246h1022v-193l-713 -995h748v-246h-1102z" />
<glyph unicode="[" horiz-adv-x="790" d="M117 -250v1931h534v-223h-280v-1483h280v-225h-534z" />
<glyph unicode="\" horiz-adv-x="1224" d="M70 1540h274l778 -1728h-276z" />
<glyph unicode="]" horiz-adv-x="790" d="M117 -25h280v1483h-280v223h534v-1931h-534v225z" />
<glyph unicode="^" horiz-adv-x="1378" d="M78 840l481 702h201l481 -702h-276l-306 450l-303 -450h-278z" />
<glyph unicode="_" horiz-adv-x="1441" d="M117 0h1169v-211h-1169v211z" />
<glyph unicode="`" horiz-adv-x="647" d="M55 1540h353l192 -328h-244z" />
<glyph unicode="a" horiz-adv-x="1163" d="M55 303q0 73 24 131.5t64 97.5t94.5 65.5t114.5 38t125 11.5q55 0 112.5 -5t87.5 -10l30 -5v92q0 71 -48.5 109t-123.5 38q-159 0 -291 -121l-135 177q8 7 22 19t60 42.5t93 53.5t115 42t133 19q213 0 325 -101t112 -299v-442q0 -68 63 -68q10 0 25 3l25 5l10 3l-21 -201 q-43 -23 -106 -23q-32 0 -64.5 11t-55.5 26.5t-41.5 31.5t-27.5 27l-10 11q-132 -107 -315 -107q-164 0 -280 91t-116 237zM309 322q0 -61 45.5 -91t110.5 -30q138 0 244 82v139q-78 22 -195 22q-96 0 -150.5 -31t-54.5 -91z" />
<glyph unicode="b" horiz-adv-x="1236" d="M143 0v1458h265v-430q113 70 241 70q76 0 146 -20.5t131.5 -64t106.5 -106t71 -152t26 -196.5q0 -118 -30 -217.5t-79 -165t-111.5 -112t-126.5 -67t-126 -20.5q-197 0 -301 84l-30 -61h-183zM399 285q112 -78 224 -78q80 0 132.5 49t74.5 124t22 173q0 163 -60.5 238 t-191.5 75q-58 0 -112.5 -21t-88.5 -50v-510z" />
<glyph unicode="c" horiz-adv-x="1116" d="M63 539q0 113 30.5 206.5t82.5 158t122 109t148 65t162 20.5q255 0 426 -176l-127 -172q-77 59 -144.5 87.5t-154.5 28.5q-132 0 -203 -83.5t-71 -243.5q0 -158 79 -245t212 -87q140 0 286 135l140 -170q-160 -197 -424 -197q-92 0 -175 21t-154.5 66.5t-123.5 110.5 t-81.5 159t-29.5 207z" />
<glyph unicode="d" horiz-adv-x="1226" d="M63 539q0 112 28 206t74 157.5t106.5 108t125.5 65t131 20.5q139 0 258 -66v430h265v-1460h-183l-30 61q-110 -84 -310 -84q-66 0 -130.5 21t-125 66t-107 109.5t-74.5 159t-28 206.5zM334 539q0 -156 69.5 -244t171.5 -88q111 0 220 78v510q-1 1 -8.5 5.5t-12 7.5 t-15 8.5t-19 9.5t-21 9.5t-24 9.5t-26.5 8t-29.5 7t-31 4.5t-33.5 1.5q-51 0 -92.5 -16.5t-76 -52.5t-53.5 -102t-19 -156z" />
<glyph unicode="e" horiz-adv-x="1183" d="M63 530q0 136 43 246t116.5 179.5t167 106t198.5 36.5q120 0 215 -47t151.5 -125.5t85.5 -173.5t29 -199l-6 -113h-725q19 -111 88.5 -172t181.5 -61q94 0 173 40t132 101l150 -164q-94 -101 -201 -155t-270 -54q-78 0 -153.5 21.5t-143.5 67t-119.5 109.5t-82 156.5 t-30.5 200.5zM342 641h465q-12 102 -72.5 163.5t-146.5 61.5q-98 0 -165.5 -61t-80.5 -164z" />
<glyph unicode="f" horiz-adv-x="792" d="M59 856v217h146v160q0 156 94.5 244t267.5 88q49 0 96.5 -7.5t70.5 -15.5l22 -8l-51 -201q-72 15 -121 15q-50 0 -83.5 -26.5t-33.5 -74.5v-174h244v-217h-244v-856h-262v856h-146z" />
<glyph unicode="g" d="M74 551q0 112 31.5 205.5t81.5 155t115 104t130.5 61.5t128.5 19q178 0 297 -86l33 63h180v-1016q0 -111 -38.5 -197.5t-105 -138.5t-150 -79t-179.5 -27q-133 0 -254.5 45.5t-196.5 112.5l105 190q170 -123 332 -123q107 0 172 48.5t65 138.5v39q-93 -52 -246 -52 q-74 0 -145.5 21.5t-136 65.5t-113.5 106.5t-77.5 151.5t-28.5 192zM344 561q0 -150 71 -232.5t183 -82.5q59 0 113 12t78 24l24 11v495q-88 78 -209 78q-111 0 -185.5 -77t-74.5 -228z" />
<glyph unicode="h" d="M143 0v1540h258v-549q113 107 285 107q77 0 145.5 -24.5t123 -70t86.5 -118.5t32 -164v-721h-262v694q0 172 -164 172q-44 0 -85.5 -17.5t-69 -43t-48.5 -51t-31 -42.5l-10 -18v-694h-260z" />
<glyph unicode="i" horiz-adv-x="559" d="M115 1403q0 78 45.5 120t109.5 42q67 0 113.5 -41.5t46.5 -120.5q0 -77 -46.5 -118.5t-113.5 -41.5q-64 0 -109.5 41.5t-45.5 118.5zM141 0v1073h262v-1073h-262z" />
<glyph unicode="j" horiz-adv-x="595" d="M-117 -360l51 204q67 -12 91 -12q69 0 109 39t40 102v1100h260v-1126q0 -155 -104.5 -246.5t-278.5 -91.5q-35 0 -77 7.5t-66 15.5zM145 1403q0 78 46.5 120t111.5 42q67 0 113.5 -41.5t46.5 -120.5q0 -77 -46.5 -118.5t-113.5 -41.5q-65 0 -111.5 41.5t-46.5 118.5z" />
<glyph unicode="k" horiz-adv-x="1138" d="M143 0v1540h263v-852l323 385h334l-422 -471l485 -602h-340l-319 412l-61 -72v-340h-263z" />
<glyph unicode="l" horiz-adv-x="544" d="M133 0v1538h264v-1538h-264z" />
<glyph unicode="m" horiz-adv-x="1878" d="M152 0v1073h198l33 -108q129 133 285 133q188 0 282 -166q68 79 150 122.5t200 43.5q173 0 274 -102.5t101 -297.5v-698h-260v735q0 71 -33 101t-100 30q-62 0 -125.5 -43.5t-112.5 -130.5v-692h-262v735q0 71 -32.5 101t-98.5 30q-59 0 -121.5 -45.5t-115.5 -130.5v-690 h-262z" />
<glyph unicode="n" d="M143 0v1073h199l33 -108q63 62 145 97.5t170 35.5q174 0 278.5 -97.5t104.5 -279.5v-721h-262v694q0 95 -34 133.5t-103 38.5q-155 0 -271 -176v-690h-260z" />
<glyph unicode="o" horiz-adv-x="1284" d="M76 537q0 112 31 206t84 158.5t123.5 109t149 65t161.5 20.5t161.5 -20.5t149 -65t123.5 -109t84 -158.5t31 -206q0 -113 -31 -206.5t-84 -158t-123.5 -109.5t-149 -65.5t-161.5 -20.5t-161.5 20.5t-149 65.5t-123.5 109.5t-84 158t-31 206.5zM352 537q0 -155 72 -242.5 t201 -87.5q130 0 201 87t71 243t-71 242.5t-201 86.5q-129 0 -201 -87t-72 -242z" />
<glyph unicode="p" horiz-adv-x="1226" d="M143 -387v1460h205l14 -57q114 82 283 82q75 0 145 -20.5t132 -65.5t108 -109.5t73 -158.5t27 -207q0 -126 -43 -233t-116 -178.5t-169 -111t-202 -39.5q-45 0 -96.5 9.5t-79.5 18.5l-29 9v-399h-252zM399 242q62 -35 146 -35q154 0 230.5 86t76.5 270q0 153 -76 228 t-203 75q-44 0 -87.5 -11t-65.5 -21l-21 -11v-581z" />
<glyph unicode="q" horiz-adv-x="1226" d="M63 545q0 112 31.5 206t82 156.5t115 106t129.5 63t126 19.5q149 0 282 -84l15 61h207v-1460h-252v426q-100 -62 -250 -62q-73 0 -142 21.5t-131.5 67.5t-110 111.5t-75 160.5t-27.5 207zM340 541q0 -90 22 -157t59.5 -104.5t82 -55t96.5 -17.5q31 0 80 7.5t82 14.5l33 7 v583q-10 5 -27.5 13t-69 21t-98.5 13q-119 0 -189.5 -83.5t-70.5 -241.5z" />
<glyph unicode="r" horiz-adv-x="837" d="M139 0v1073h191l32 -102q100 127 273 127q79 0 170 -31l-51 -252q-70 39 -142 39q-75 0 -124.5 -36.5t-86.5 -117.5v-700h-262z" />
<glyph unicode="s" horiz-adv-x="1030" d="M47 166l137 170q57 -51 148.5 -90t181.5 -39q66 0 109 24t43 58q0 50 -39.5 76t-157.5 57q-47 12 -77.5 21.5t-75 26.5t-74 33.5t-62.5 43t-52.5 56.5t-32.5 70.5t-13 88.5q0 148 112.5 242t299.5 94q126 0 226 -44.5t189 -119.5l-112 -186q-165 118 -293 118 q-84 0 -127 -24t-43 -68q0 -21 15 -38.5t47.5 -32t62 -24.5t80.5 -24q43 -13 61 -18.5t59 -19.5t61 -23.5t54 -27.5t51.5 -34t40.5 -40.5t34 -50t19.5 -59t8.5 -71.5q0 -145 -119.5 -240.5t-333.5 -95.5q-94 0 -184 32.5t-145.5 72.5t-98.5 86z" />
<glyph unicode="t" horiz-adv-x="819" d="M31 856v217h164v103l108 165h154v-268h260v-217h-260v-571q0 -78 73 -78q30 0 73 9.5t71 19.5l28 10l82 -193q-18 -9 -48 -22t-113 -34.5t-152 -21.5q-130 0 -203 55.5t-73 194.5v631h-164z" />
<glyph unicode="u" d="M143 338v735h260v-692q0 -90 46 -132t120 -42q44 0 87.5 13t87.5 49t67 91v713h262v-1073h-180l-51 111q-125 -136 -291 -136q-85 0 -158 22t-129.5 65.5t-88.5 114t-32 161.5z" />
<glyph unicode="v" horiz-adv-x="1101" d="M-8 1073h282l258 -715l261 715h288l-444 -1073h-215z" />
<glyph unicode="w" horiz-adv-x="1626" d="M41 1073h283l165 -633l201 633h193l200 -639l189 639h270l-362 -1073h-201l-199 623l-211 -623h-200z" />
<glyph unicode="x" horiz-adv-x="1112" d="M-2 0l391 541l-375 532h310l215 -334l204 334h310l-363 -514l393 -559h-288l-246 356l-242 -356h-309z" />
<glyph unicode="y" horiz-adv-x="1214" d="M39 1073h297l268 -751l246 751h297l-416 -1122q-49 -133 -155 -211t-257 -78q-33 0 -75 9t-68 17l-26 9l55 215q72 -27 117 -27q91 0 124 88l21 54z" />
<glyph unicode="z" horiz-adv-x="995" d="M74 0v176l487 666h-450v231h786v-186l-496 -656h514v-231h-841z" />
<glyph unicode="{" horiz-adv-x="878" d="M127 614v205q69 0 116.5 34.5t47.5 102.5v220q0 169 113.5 265.5t312.5 96.5v-199q-83 0 -128.5 -41.5t-45.5 -115.5v-267q0 -69 -36 -120t-87 -80q52 -31 87.5 -80.5t35.5 -114.5v-268q0 -73 45.5 -114.5t128.5 -41.5v-200q-199 0 -312.5 96.5t-113.5 265.5v221 q0 66 -47.5 100.5t-116.5 34.5z" />
<glyph unicode="|" horiz-adv-x="544" d="M143 -188v1726h244v-1726h-244z" />
<glyph unicode="}" horiz-adv-x="878" d="M127 96q83 0 129.5 42t46.5 114v268q0 64 35.5 114t85.5 81q-50 29 -85.5 80t-35.5 120v267q0 74 -46.5 115.5t-129.5 41.5v199q201 0 314.5 -96.5t113.5 -265.5v-220q0 -68 46.5 -102.5t115.5 -34.5v-205q-69 0 -115.5 -34.5t-46.5 -100.5v-221q0 -169 -113.5 -265.5 t-314.5 -96.5v200z" />
<glyph unicode="~" horiz-adv-x="1265" d="M98 483q28 152 107.5 227.5t187.5 75.5q67 0 194.5 -37.5t186.5 -37.5q37 0 73 25t50 59h219q-16 -82 -50 -143.5t-79 -96.5t-94 -51.5t-102 -16.5q-63 0 -193 38t-188 38q-76 0 -115 -80h-197z" />
<glyph unicode="&#xa1;" horiz-adv-x="600" d="M121 922q0 86 49 130t121 44t121 -44t49 -130q0 -83 -49.5 -127.5t-120.5 -44.5t-120.5 44.5t-49.5 127.5zM141 -362l41 968h226l41 -968h-308z" />
<glyph unicode="&#xa2;" horiz-adv-x="1116" d="M109 539q0 110 31.5 199.5t86.5 149.5t124 97.5t151 52.5l-4 230h223l-4 -234q152 -28 274 -147l-117 -158q-68 51 -129 74.5t-141 23.5q-111 0 -176.5 -76.5t-65.5 -211.5q0 -134 72.5 -213.5t183.5 -79.5q140 0 261 114l127 -155q-115 -143 -289 -172l4 -221h-223 l2 225q-176 33 -283.5 159.5t-107.5 342.5z" />
<glyph unicode="&#xa3;" horiz-adv-x="1275" d="M127 -25v211q68 24 99.5 70.5t31.5 128.5v225h-104v234h104v182q0 103 35 184t95.5 130.5t135.5 74.5t160 25q118 0 216 -38t200 -116l-133 -196q-149 112 -285 112q-158 0 -158 -190v-168h402v-234h-402v-213q0 -117 -43 -166q64 0 205.5 -12t192.5 -12q50 0 100.5 4.5 t76.5 8.5l25 5l43 -215q-135 -35 -272 -35q-81 0 -221.5 12.5t-210.5 12.5q-126 0 -293 -25z" />
<glyph unicode="&#xa4;" horiz-adv-x="1705" d="M287 279l149 147q-65 120 -65 240q0 123 63 243l-147 146l184 182l164 -162q105 41 223 41q97 0 221 -45l168 168l183 -184l-154 -152q59 -106 59 -237q0 -121 -57 -232l149 -158l-178 -178l-168 164q-119 -43 -223 -43q-113 0 -219 41l-168 -168zM637 666 q0 -102 59.5 -157.5t163.5 -55.5q89 8 142 60t53 153q0 99 -54.5 155t-142.5 56q-102 0 -161.5 -55.5t-59.5 -155.5z" />
<glyph unicode="&#xa5;" horiz-adv-x="1208" d="M-35 1413h314l317 -616l319 616h295l-338 -598h234v-199h-338l-51 -92h389v-196h-385v-328h-266v328h-385v196h391l-53 92h-338v199h231z" />
<glyph unicode="&#xa6;" horiz-adv-x="831" d="M285 -281v1823h237v-1823h-237z" />
<glyph unicode="&#xa7;" horiz-adv-x="1228" d="M94 -90l113 172q66 -60 175 -101.5t214 -41.5q84 0 144.5 32t60.5 92q0 45 -62 78.5t-217 73.5q-36 10 -55 15t-56.5 17t-59.5 22.5t-55.5 27.5t-54 34.5t-44.5 43t-37 53t-22 63.5t-9 76q0 81 43.5 156t118.5 117q-58 38 -93.5 101.5t-35.5 137.5q0 158 126 256.5 t326 98.5q226 0 447 -170l-143 -185q-149 131 -314 131q-92 0 -141 -32.5t-49 -85.5q0 -29 20 -53t60 -42t79 -30t99 -27q173 -45 246 -82q169 -86 176 -257v-15q0 -81 -42.5 -152t-125.5 -119q137 -76 137 -229q0 -158 -127 -259t-361 -101q-137 0 -272.5 56.5 t-208.5 127.5zM381 573q0 -59 61.5 -91.5t165.5 -32.5q103 0 164.5 32.5t61.5 91.5q0 58 -61.5 90.5t-164.5 32.5q-104 0 -165.5 -32.5t-61.5 -90.5z" />
<glyph unicode="&#xa8;" horiz-adv-x="614" d="M-39 1403q0 73 44 111t104 38q61 0 105 -38t44 -111t-44 -112.5t-105 -39.5q-60 0 -104 39.5t-44 112.5zM342 1403q0 73 43.5 111t103.5 38q61 0 104.5 -38t43.5 -111t-43.5 -112.5t-104.5 -39.5q-59 0 -103 39.5t-44 112.5z" />
<glyph unicode="&#xa9;" horiz-adv-x="1699" d="M123 705q0 173 57.5 312.5t157 229t230.5 137.5t282 48t282 -48t230.5 -137.5t157 -229t57.5 -312.5t-57.5 -313t-157 -230t-230.5 -138.5t-282 -48.5t-282 48.5t-230.5 138.5t-157 230t-57.5 313zM332 705q0 -161 70 -284t187 -187t261 -64q143 0 260 64t187.5 187 t70.5 284q0 160 -70.5 282.5t-187.5 186t-260 63.5q-144 0 -261 -63.5t-187 -186t-70 -282.5zM524 705q0 158 98.5 252t233.5 94q44 0 85.5 -10.5t69.5 -25.5t50 -30.5t33 -26.5l10 -10l-84 -133q-7 6 -20 15t-52.5 24.5t-77.5 15.5q-73 0 -112 -44t-39 -121q0 -74 43 -120 t110 -46q35 0 73 15.5t59 30.5l20 15l102 -129q-116 -113 -260 -113q-153 0 -247.5 91.5t-94.5 255.5z" />
<glyph unicode="&#xaa;" horiz-adv-x="776" d="M53 778q0 109 71.5 161t178.5 52q35 0 66 -3t45 -6l14 -3v20q0 43 -30 68t-76 25q-41 0 -79.5 -11t-56.5 -23l-18 -11l-76 137q4 3 12.5 8.5t35 20t54 25t68.5 19.5t80 9q134 0 209.5 -61t75.5 -181v-236q0 -59 73 -59l-10 -139q-33 -15 -74 -15q-86 0 -129 66 q-83 -66 -196 -66q-99 0 -168.5 56.5t-69.5 146.5zM268 801q0 -51 66 -51q9 0 17.5 1t17 3t14 4t13.5 6t11.5 5.5t12 6.5t10.5 6v62q-27 10 -78 10q-84 0 -84 -53z" />
<glyph unicode="&#xab;" horiz-adv-x="1153" d="M16 696l447 549l178 -135l-344 -414l342 -409l-174 -137zM453 696l467 549l178 -135l-365 -414l363 -409l-174 -137z" />
<glyph unicode="&#xac;" horiz-adv-x="1345" d="M145 602v236h1022v-549h-256v313h-766z" />
<glyph unicode="&#xad;" horiz-adv-x="925" d="M139 481v238h623v-238h-623z" />
<glyph unicode="&#xae;" horiz-adv-x="1699" d="M123 705q0 173 57.5 312.5t157 229t230.5 137.5t282 48t282 -48t230.5 -137.5t157 -229t57.5 -312.5t-57.5 -313t-157 -230t-230.5 -138.5t-282 -48.5t-282 48.5t-230.5 138.5t-157 230t-57.5 313zM332 705q0 -161 70 -284t187 -187t261 -64q143 0 260 64t187.5 187 t70.5 284q0 160 -70.5 282.5t-187.5 186t-260 63.5q-144 0 -261 -63.5t-187 -186t-70 -282.5zM600 367v684h242q137 0 199.5 -58.5t62.5 -156.5q0 -33 -12 -63t-29 -49t-33.5 -33.5t-28.5 -20.5l-12 -6l152 -297h-187l-114 249h-82v-249h-158zM760 756h82q43 0 67.5 23.5 t24.5 54.5q0 37 -26 57t-72 20h-76v-155z" />
<glyph unicode="&#xb0;" horiz-adv-x="579" d="M68 1229q0 101 64 155t155 54q90 0 154.5 -54t64.5 -155t-64.5 -155t-154.5 -54q-91 0 -155 54t-64 155zM217 1229q0 -38 19.5 -59t50.5 -21q32 0 51.5 21.5t19.5 58.5q0 38 -19.5 58t-51.5 20t-51 -20t-19 -58z" />
<glyph unicode="&#xb1;" horiz-adv-x="1222" d="M100 891v233h394v416h235v-416h393v-233h-393v-414h-235v414h-394zM133 -2h957v231h-957v-231z" />
<glyph unicode="&#xb2;" horiz-adv-x="909" d="M119 1296q151 138 321 138q146 0 225.5 -71t79.5 -177q0 -226 -276 -408h287v-196h-600v184q66 45 111 77.5t99.5 77t87.5 80t55.5 76t22.5 76.5q0 96 -106 96q-51 0 -107 -27.5t-104 -72.5z" />
<glyph unicode="&#xb3;" horiz-adv-x="851" d="M92 668l82 153q11 -7 30.5 -17.5t75 -28t103.5 -17.5q66 0 104.5 26.5t38.5 63.5q0 78 -108 78h-142v186h119q103 0 103 70q0 32 -28 50.5t-81 18.5q-100 0 -194 -75l-101 143q69 58 144.5 86.5t175.5 28.5q143 0 220 -65.5t77 -160.5q0 -93 -74 -170q104 -65 104 -184 q0 -125 -93 -204t-242 -79q-98 0 -171.5 20.5t-142.5 76.5z" />
<glyph unicode="&#xb4;" horiz-adv-x="636" d="M31 1212l231 328h344l-334 -328h-241z" />
<glyph unicode="&#xb6;" horiz-adv-x="1411" d="M150 1028q0 82 23 148.5t73 121t139.5 85t212.5 30.5h610v-1413h-241v1174h-99v-1174h-241v629q-116 4 -208.5 36.5t-150.5 87t-88 124.5t-30 151z" />
<glyph unicode="&#xb7;" horiz-adv-x="559" d="M104 618q0 82 49 126t119 44q71 0 119.5 -44t48.5 -126q0 -84 -48.5 -128t-119.5 -44q-70 0 -119 44t-49 128z" />
<glyph unicode="&#xb8;" horiz-adv-x="299" d="M-25 -295q71 32 99 51t28 37q0 19 -22 19q-7 0 -16 -3t-14 -5l-5 -3l-45 66v166h186v-92q63 -12 96 -50.5t33 -93.5q0 -43 -22.5 -79t-54.5 -58t-75 -39t-75 -25t-63 -12z" />
<glyph unicode="&#xb9;" horiz-adv-x="718" d="M27 1219l274 198h145v-829h-208v534l-107 -75z" />
<glyph unicode="&#xba;" horiz-adv-x="813" d="M63 1094q0 166 97.5 253t236.5 87q64 0 122.5 -20.5t106.5 -60.5t76.5 -107t28.5 -152t-28.5 -152.5t-76.5 -107.5t-106.5 -61t-122.5 -21q-66 0 -124.5 21t-106 61t-75.5 107.5t-28 152.5zM272 1094q0 -72 33.5 -116t91.5 -44q57 0 90 42t33 118q0 72 -33 114.5 t-90 42.5q-58 0 -91.5 -42.5t-33.5 -114.5z" />
<glyph unicode="&#xbb;" horiz-adv-x="1153" d="M16 1110l179 135l467 -549l-469 -546l-175 137l363 409zM473 1110l178 135l447 -549l-449 -546l-174 137l342 409z" />
<glyph unicode="&#xbc;" horiz-adv-x="1853" d="M113 1237l274 199h145v-830h-208v535l-107 -76zM260 0h281l1034 1434h-281zM979 170v170l426 491h164v-466h112v-195h-112v-170h-209v170h-381zM1255 365h105v124z" />
<glyph unicode="&#xbd;" horiz-adv-x="1910" d="M113 1237l274 199h145v-830h-208v535l-107 -76zM213 0h281l1034 1434h-281zM1106 715q150 137 321 137q146 0 226 -71t80 -177q0 -224 -277 -407h287v-197h-600v184q84 57 139 98t116 94.5t91.5 102t30.5 92.5q0 97 -107 97q-50 0 -106.5 -28t-104.5 -73z" />
<glyph unicode="&#xbe;" horiz-adv-x="2058" d="M131 668l82 153q11 -7 30.5 -17.5t75 -28t103.5 -17.5q66 0 104.5 26.5t38.5 63.5q0 78 -108 78h-142v186h119q103 0 103 70q0 32 -28 50.5t-81 18.5q-101 0 -195 -75l-100 143q69 58 144.5 86.5t175.5 28.5q143 0 220 -65.5t77 -160.5q0 -93 -74 -170q104 -65 104 -184 q0 -125 -93.5 -204t-242.5 -79q-98 0 -171 20.5t-142 76.5zM424 0l1034 1434h281l-1034 -1434h-281zM1176 170v170l426 491h163v-466h113v-195h-113v-170h-209v170h-380zM1401 358h162v193z" />
<glyph unicode="&#xbf;" horiz-adv-x="1124" d="M137 324q0 -148 131.5 -248.5t337.5 -100.5q133 0 248 51t199 119l-135 207q-151 -135 -320 -135q-78 0 -128 32t-50 89q0 34 19.5 62.5t50 53.5t68 52.5t75 68t68 92t50 132.5t19.5 182h-268q0 -82 -20 -146t-52.5 -104t-71 -73t-77.5 -63t-71.5 -64t-52.5 -86.5 t-20 -120.5zM463 1266q0 86 49 130t121 44q71 0 120.5 -44.5t49.5 -129.5q0 -84 -49.5 -128t-120.5 -44q-72 0 -121 44t-49 128z" />
<glyph unicode="&#xc0;" horiz-adv-x="1454" d="M53 0l533 1434h252l534 -1434h-311l-96 281h-529l-92 -281h-291zM291 1901h352l193 -328h-244zM522 526h361l-181 523z" />
<glyph unicode="&#xc1;" horiz-adv-x="1454" d="M53 0l533 1434h252l534 -1434h-311l-96 281h-529l-92 -281h-291zM522 526h361l-181 523zM563 1573l232 328h344l-334 -328h-242z" />
<glyph unicode="&#xc2;" horiz-adv-x="1454" d="M53 0l533 1434h252l534 -1434h-311l-96 281h-529l-92 -281h-291zM354 1587l295 314h162l289 -314h-264l-107 113q-16 -18 -52 -56.5t-52 -56.5h-271zM522 526h361l-181 523z" />
<glyph unicode="&#xc3;" horiz-adv-x="1454" d="M53 0l533 1434h252l534 -1434h-311l-96 281h-529l-92 -281h-291zM319 1610q6 141 82.5 211.5t176.5 70.5q70 0 158.5 -33.5t123.5 -33.5q36 0 61 20.5t29 55.5h183q-4 -141 -73.5 -217t-172.5 -76q-56 0 -105 19t-91 37.5t-81 18.5q-80 0 -108 -73h-183zM522 526h361 l-181 523z" />
<glyph unicode="&#xc4;" horiz-adv-x="1454" d="M53 0l533 1434h252l534 -1434h-311l-96 281h-529l-92 -281h-291zM389 1763q0 73 44 111.5t104 38.5q61 0 105 -38.5t44 -111.5t-44 -112t-105 -39q-60 0 -104 39t-44 112zM522 526h361l-181 523zM770 1763q0 73 44 111.5t104 38.5q61 0 104 -38.5t43 -111.5t-43 -112 t-104 -39q-60 0 -104 39t-44 112z" />
<glyph unicode="&#xc5;" horiz-adv-x="1454" d="M53 0l533 1434h252l534 -1434h-311l-96 281h-529l-92 -281h-291zM522 526h361l-181 523zM530 1741q0 85 54.5 128.5t132.5 43.5q74 0 128 -43.5t54 -128.5q0 -84 -54.5 -129t-127.5 -45q-77 0 -132 45t-55 129zM645 1739q0 -33 20.5 -51.5t49.5 -18.5q28 0 48.5 18.5 t20.5 51.5q0 34 -20 51.5t-49 17.5t-49.5 -17.5t-20.5 -51.5z" />
<glyph unicode="&#xc6;" horiz-adv-x="1775" d="M109 0l710 1434h893v-242h-555v-344h479v-242h-479v-364h555v-242h-831v281h-336l-131 -281h-305zM657 522h224v484z" />
<glyph unicode="&#xc7;" horiz-adv-x="1351" d="M84 719q0 186 54.5 330.5t148 232t211 132t252.5 44.5q92 0 174.5 -20t147.5 -56t102 -63t79 -64l-153 -190q-69 62 -161.5 105.5t-188.5 43.5q-188 0 -282.5 -127t-94.5 -368q0 -231 104.5 -365.5t272.5 -134.5q193 0 376 168l150 -201q-216 -179 -447 -206v-37 q63 -12 96 -50.5t33 -93.5q0 -43 -22.5 -79t-54.5 -58t-75 -39t-75 -25t-63 -12l-50 121q71 32 99 51t28 37q0 19 -22 19q-7 0 -16 -3t-14 -5l-5 -3l-45 66v115q-117 16 -216.5 68.5t-177 140.5t-121.5 223t-44 303z" />
<glyph unicode="&#xc8;" horiz-adv-x="1234" d="M152 0v1434h948v-246h-672v-338h594v-246h-594v-358h672v-246h-948zM242 1903h352l192 -328h-243z" />
<glyph unicode="&#xc9;" horiz-adv-x="1234" d="M152 0v1434h948v-246h-672v-338h594v-246h-594v-358h672v-246h-948zM481 1573l232 328h344l-334 -328h-242z" />
<glyph unicode="&#xca;" horiz-adv-x="1234" d="M152 0v1434h948v-246h-672v-338h594v-246h-594v-358h672v-246h-948zM244 1587l295 314h161l289 -314h-264l-107 113q-16 -18 -52 -56.5t-52 -56.5h-270z" />
<glyph unicode="&#xcb;" horiz-adv-x="1234" d="M152 0v1434h948v-246h-672v-338h594v-246h-594v-358h672v-246h-948zM295 1763q0 73 43.5 111.5t103.5 38.5q61 0 105.5 -38.5t44.5 -111.5t-44.5 -112t-105.5 -39q-60 0 -103.5 39t-43.5 112zM676 1763q0 73 43.5 111.5t103.5 38.5q61 0 104.5 -38.5t43.5 -111.5 t-43.5 -112t-104.5 -39q-60 0 -103.5 39t-43.5 112z" />
<glyph unicode="&#xcc;" horiz-adv-x="636" d="M-102 1901h352l192 -328h-243zM174 0v1434h277v-1434h-277z" />
<glyph unicode="&#xcd;" horiz-adv-x="636" d="M147 1573l232 328h344l-334 -328h-242zM174 0v1434h277v-1434h-277z" />
<glyph unicode="&#xce;" horiz-adv-x="636" d="M-55 1587l295 314h161l289 -314h-264l-107 113q-16 -18 -52 -56.5t-52 -56.5h-270zM174 0v1434h277v-1434h-277z" />
<glyph unicode="&#xcf;" horiz-adv-x="636" d="M-20 1763q0 73 43.5 111.5t103.5 38.5q61 0 105 -38.5t44 -111.5t-44 -112t-105 -39q-60 0 -103.5 39t-43.5 112zM174 0v1434h277v-1434h-277zM360 1763q0 73 44 111.5t104 38.5q61 0 104 -38.5t43 -111.5t-43 -112t-104 -39q-60 0 -104 39t-44 112z" />
<glyph unicode="&#xd0;" horiz-adv-x="1605" d="M66 590v241h192v603h492q107 0 205.5 -24.5t189.5 -79.5t157.5 -136.5t106 -203.5t39.5 -271t-39.5 -271.5t-106.5 -204.5t-157.5 -137.5t-189 -80.5t-205.5 -25h-492v590h-192zM535 242h215q191 0 299 121.5t108 355.5q0 233 -108 353t-299 120h-215v-361h292v-241h-292 v-348z" />
<glyph unicode="&#xd1;" horiz-adv-x="1466" d="M129 0v1434h227l680 -930v930h277v-1434h-234l-682 924v-924h-268zM301 1610q6 141 82 211.5t176 70.5q70 0 159 -33.5t124 -33.5q36 0 61 20.5t29 55.5h182q-4 -141 -73.5 -217t-172.5 -76q-56 0 -104.5 19t-90.5 37.5t-81 18.5q-81 0 -109 -73h-182z" />
<glyph unicode="&#xd2;" horiz-adv-x="1640" d="M104 719q0 149 39.5 273t107 209t157.5 144t190 86t207 27q106 0 205.5 -27t189 -86t156 -144t106 -209t39.5 -273t-39.5 -273.5t-106 -210t-156 -145.5t-189 -87.5t-205.5 -27.5q-107 0 -207 27.5t-190 87.5t-157.5 145.5t-107 210t-39.5 273.5zM395 721 q0 -236 108 -369t294 -133q192 0 302.5 131t110.5 371q0 235 -108.5 364t-296.5 129q-190 0 -300 -129t-110 -364zM410 1901h352l192 -328h-243z" />
<glyph unicode="&#xd3;" horiz-adv-x="1640" d="M104 719q0 149 39.5 273t107 209t157.5 144t190 86t207 27q106 0 205.5 -27t189 -86t156 -144t106 -209t39.5 -273t-39.5 -273.5t-106 -210t-156 -145.5t-189 -87.5t-205.5 -27.5q-107 0 -207 27.5t-190 87.5t-157.5 145.5t-107 210t-39.5 273.5zM395 721 q0 -236 108 -369t294 -133q192 0 302.5 131t110.5 371q0 235 -108.5 364t-296.5 129q-190 0 -300 -129t-110 -364zM682 1573l231 328h344l-333 -328h-242z" />
<glyph unicode="&#xd4;" horiz-adv-x="1640" d="M104 719q0 149 39.5 273t107 209t157.5 144t190 86t207 27q106 0 205.5 -27t189 -86t156 -144t106 -209t39.5 -273t-39.5 -273.5t-106 -210t-156 -145.5t-189 -87.5t-205.5 -27.5q-107 0 -207 27.5t-190 87.5t-157.5 145.5t-107 210t-39.5 273.5zM395 721 q0 -236 108 -369t294 -133q192 0 302.5 131t110.5 371q0 235 -108.5 364t-296.5 129q-190 0 -300 -129t-110 -364zM446 1587l295 314h162l289 -314h-264l-107 113q-16 -18 -52 -56.5t-52 -56.5h-271z" />
<glyph unicode="&#xd5;" horiz-adv-x="1640" d="M104 719q0 149 39.5 273t107 209t157.5 144t190 86t207 27q106 0 205.5 -27t189 -86t156 -144t106 -209t39.5 -273t-39.5 -273.5t-106 -210t-156 -145.5t-189 -87.5t-205.5 -27.5q-107 0 -207 27.5t-190 87.5t-157.5 145.5t-107 210t-39.5 273.5zM395 721 q0 -236 108 -369t294 -133q192 0 302.5 131t110.5 371q0 235 -108.5 364t-296.5 129q-190 0 -300 -129t-110 -364zM414 1610q6 141 82 211.5t176 70.5q70 0 158.5 -33.5t123.5 -33.5q36 0 61 20.5t29 55.5h183q-4 -141 -73.5 -217t-172.5 -76q-56 0 -104.5 19t-90.5 37.5 t-81 18.5q-81 0 -109 -73h-182z" />
<glyph unicode="&#xd6;" horiz-adv-x="1640" d="M104 719q0 149 39.5 273t107 209t157.5 144t190 86t207 27q106 0 205.5 -27t189 -86t156 -144t106 -209t39.5 -273t-39.5 -273.5t-106 -210t-156 -145.5t-189 -87.5t-205.5 -27.5q-107 0 -207 27.5t-190 87.5t-157.5 145.5t-107 210t-39.5 273.5zM395 721 q0 -236 108 -369t294 -133q192 0 302.5 131t110.5 371q0 235 -108.5 364t-296.5 129q-190 0 -300 -129t-110 -364zM481 1763q0 73 44 111.5t104 38.5q61 0 105 -38.5t44 -111.5t-44 -112t-105 -39q-60 0 -104 39t-44 112zM862 1763q0 73 44 111.5t104 38.5q61 0 104 -38.5 t43 -111.5t-43 -112t-104 -39q-60 0 -104 39t-44 112z" />
<glyph unicode="&#xd7;" horiz-adv-x="1140" d="M109 326l274 274l-274 277l170 172l274 -279l278 279l170 -172l-276 -277l276 -274l-170 -170l-278 274l-274 -274z" />
<glyph unicode="&#xd8;" horiz-adv-x="1640" d="M104 719q0 149 39.5 273t107 209t157.5 144t190 86t207 27q100 0 184 -24l82 180h279l-129 -285q131 -90 205.5 -244t74.5 -366q0 -149 -39.5 -273.5t-106 -210t-156 -145.5t-189 -87.5t-205.5 -27.5q-99 0 -184 21l-97 -211h-282l143 319q-130 95 -205.5 249t-75.5 366z M395 719q0 -235 105 -365l391 863q-81 6 -86 6q-189 0 -299.5 -133.5t-110.5 -370.5zM721 225q31 -6 84 -6q189 5 297 134.5t108 365.5q0 234 -100 360z" />
<glyph unicode="&#xd9;" horiz-adv-x="1388" d="M123 522v912h276v-926q0 -137 73.5 -213t209.5 -76q135 0 207 75.5t72 213.5v926h276v-912q0 -118 -30 -212.5t-81.5 -156t-123.5 -102.5t-151 -58.5t-169 -17.5t-169.5 17.5t-152 58.5t-124.5 102.5t-82.5 156t-30.5 212.5zM270 1901h353l192 -328h-244z" />
<glyph unicode="&#xda;" horiz-adv-x="1388" d="M123 522v912h276v-926q0 -137 73.5 -213t209.5 -76q135 0 207 75.5t72 213.5v926h276v-912q0 -118 -30 -212.5t-81.5 -156t-123.5 -102.5t-151 -58.5t-169 -17.5t-169.5 17.5t-152 58.5t-124.5 102.5t-82.5 156t-30.5 212.5zM549 1573l231 328h344l-333 -328h-242z" />
<glyph unicode="&#xdb;" horiz-adv-x="1388" d="M123 522v912h276v-926q0 -137 73.5 -213t209.5 -76q135 0 207 75.5t72 213.5v926h276v-912q0 -118 -30 -212.5t-81.5 -156t-123.5 -102.5t-151 -58.5t-169 -17.5t-169.5 17.5t-152 58.5t-124.5 102.5t-82.5 156t-30.5 212.5zM322 1587l294 314h162l289 -314h-264 l-107 113q-16 -18 -52 -56.5t-52 -56.5h-270z" />
<glyph unicode="&#xdc;" horiz-adv-x="1388" d="M123 522v912h276v-926q0 -137 73.5 -213t209.5 -76q135 0 207 75.5t72 213.5v926h276v-912q0 -118 -30 -212.5t-81.5 -156t-123.5 -102.5t-151 -58.5t-169 -17.5t-169.5 17.5t-152 58.5t-124.5 102.5t-82.5 156t-30.5 212.5zM356 1763q0 73 44 111.5t104 38.5 q61 0 105 -38.5t44 -111.5t-44 -112t-105 -39q-60 0 -104 39t-44 112zM737 1763q0 73 44 111.5t104 38.5q61 0 104 -38.5t43 -111.5t-43 -112t-104 -39q-60 0 -104 39t-44 112z" />
<glyph unicode="&#xdd;" horiz-adv-x="1290" d="M2 1434h315l324 -598l324 598h297l-494 -861v-573h-272v575zM500 1573l231 328h344l-334 -328h-241z" />
<glyph unicode="&#xde;" horiz-adv-x="1169" d="M152 0v1434h276v-232h168q115 0 205 -23.5t148.5 -64.5t96 -99.5t53 -124.5t15.5 -145q0 -97 -29 -176.5t-89.5 -142t-162 -97t-237.5 -34.5h-168v-295h-276zM428 528h184q103 0 157 65t54 152q0 100 -56.5 158t-154.5 58h-184v-433z" />
<glyph unicode="&#xdf;" horiz-adv-x="1304" d="M145 0v1038q0 95 37.5 169t102.5 119t148 68t179 23q235 0 354 -96.5t119 -273.5q0 -80 -33 -151t-94 -122q109 -44 172.5 -134.5t63.5 -225.5q0 -93 -26.5 -171t-78.5 -138t-138 -94t-197 -34q-56 0 -109 10.5t-77 20.5l-25 10l39 222q75 -29 145 -29q88 0 136 49.5 t48 138.5q0 106 -57.5 154.5t-183.5 48.5h-170v238h65q262 0 262 182q0 79 -55.5 117.5t-150.5 38.5q-92 0 -150.5 -43.5t-58.5 -135.5v-999h-267z" />
<glyph unicode="&#xe0;" horiz-adv-x="1163" d="M55 303q0 73 24 131.5t64 97.5t94.5 65.5t114.5 38t125 11.5q55 0 112.5 -5t87.5 -10l30 -5v92q0 71 -48.5 109t-123.5 38q-159 0 -291 -121l-135 177q8 7 22 19t60 42.5t93 53.5t115 42t133 19q213 0 325 -101t112 -299v-442q0 -68 63 -68q10 0 25 3l25 5l10 3l-21 -201 q-43 -23 -106 -23q-32 0 -64.5 11t-55.5 26.5t-41.5 31.5t-27.5 27l-10 11q-132 -107 -315 -107q-164 0 -280 91t-116 237zM141 1540h353l192 -328h-244zM309 322q0 -61 45.5 -91t110.5 -30q138 0 244 82v139q-78 22 -195 22q-96 0 -150.5 -31t-54.5 -91z" />
<glyph unicode="&#xe1;" horiz-adv-x="1163" d="M55 303q0 73 24 131.5t64 97.5t94.5 65.5t114.5 38t125 11.5q55 0 112.5 -5t87.5 -10l30 -5v92q0 71 -48.5 109t-123.5 38q-159 0 -291 -121l-135 177q8 7 22 19t60 42.5t93 53.5t115 42t133 19q213 0 325 -101t112 -299v-442q0 -68 63 -68q10 0 25 3l25 5l10 3l-21 -201 q-43 -23 -106 -23q-32 0 -64.5 11t-55.5 26.5t-41.5 31.5t-27.5 27l-10 11q-132 -107 -315 -107q-164 0 -280 91t-116 237zM309 322q0 -61 45.5 -91t110.5 -30q138 0 244 82v139q-78 22 -195 22q-96 0 -150.5 -31t-54.5 -91zM416 1212l231 328h344l-334 -328h-241z" />
<glyph unicode="&#xe2;" horiz-adv-x="1163" d="M55 303q0 73 24 131.5t64 97.5t94.5 65.5t114.5 38t125 11.5q55 0 112.5 -5t87.5 -10l30 -5v92q0 71 -48.5 109t-123.5 38q-159 0 -291 -121l-135 177q8 7 22 19t60 42.5t93 53.5t115 42t133 19q213 0 325 -101t112 -299v-442q0 -68 63 -68q10 0 25 3l25 5l10 3l-21 -201 q-43 -23 -106 -23q-32 0 -64.5 11t-55.5 26.5t-41.5 31.5t-27.5 27l-10 11q-132 -107 -315 -107q-164 0 -280 91t-116 237zM170 1227l295 313h162l288 -313h-264l-106 112q-16 -18 -52.5 -56t-52.5 -56h-270zM309 322q0 -61 45.5 -91t110.5 -30q138 0 244 82v139 q-78 22 -195 22q-96 0 -150.5 -31t-54.5 -91z" />
<glyph unicode="&#xe3;" horiz-adv-x="1163" d="M55 303q0 73 24 131.5t64 97.5t94.5 65.5t114.5 38t125 11.5q55 0 112.5 -5t87.5 -10l30 -5v92q0 71 -48.5 109t-123.5 38q-159 0 -291 -121l-135 177q8 7 22 19t60 42.5t93 53.5t115 42t133 19q213 0 325 -101t112 -299v-442q0 -68 63 -68q10 0 25 3l25 5l10 3l-21 -201 q-43 -23 -106 -23q-32 0 -64.5 11t-55.5 26.5t-41.5 31.5t-27.5 27l-10 11q-132 -107 -315 -107q-164 0 -280 91t-116 237zM147 1249q6 141 82.5 212t176.5 71q70 0 158.5 -34t123.5 -34q36 0 61 20.5t29 55.5h183q-4 -141 -73.5 -217t-172.5 -76q-56 0 -105 19t-91 38 t-81 19q-80 0 -108 -74h-183zM309 322q0 -61 45.5 -91t110.5 -30q138 0 244 82v139q-78 22 -195 22q-96 0 -150.5 -31t-54.5 -91z" />
<glyph unicode="&#xe4;" horiz-adv-x="1163" d="M55 303q0 73 24 131.5t64 97.5t94.5 65.5t114.5 38t125 11.5q55 0 112.5 -5t87.5 -10l30 -5v92q0 71 -48.5 109t-123.5 38q-159 0 -291 -121l-135 177q8 7 22 19t60 42.5t93 53.5t115 42t133 19q213 0 325 -101t112 -299v-442q0 -68 63 -68q10 0 25 3l25 5l10 3l-21 -201 q-43 -23 -106 -23q-32 0 -64.5 11t-55.5 26.5t-41.5 31.5t-27.5 27l-10 11q-132 -107 -315 -107q-164 0 -280 91t-116 237zM211 1403q0 73 43.5 111t103.5 38q61 0 105.5 -38t44.5 -111t-44.5 -112.5t-105.5 -39.5q-59 0 -103 39.5t-44 112.5zM309 322q0 -61 45.5 -91 t110.5 -30q138 0 244 82v139q-78 22 -195 22q-96 0 -150.5 -31t-54.5 -91zM592 1403q0 73 43.5 111t103.5 38q61 0 104.5 -38t43.5 -111t-43.5 -112.5t-104.5 -39.5q-59 0 -103 39.5t-44 112.5z" />
<glyph unicode="&#xe5;" horiz-adv-x="1163" d="M55 303q0 73 24 131.5t64 97.5t94.5 65.5t114.5 38t125 11.5q55 0 112.5 -5t87.5 -10l30 -5v92q0 71 -48.5 109t-123.5 38q-159 0 -291 -121l-135 177q8 7 22 19t60 42.5t93 53.5t115 42t133 19q213 0 325 -101t112 -299v-442q0 -68 63 -68q10 0 25 3l25 5l10 3l-21 -201 q-43 -23 -106 -23q-32 0 -64.5 11t-55.5 26.5t-41.5 31.5t-27.5 27l-10 11q-132 -107 -315 -107q-164 0 -280 91t-116 237zM309 322q0 -61 45.5 -91t110.5 -30q138 0 244 82v139q-78 22 -195 22q-96 0 -150.5 -31t-54.5 -91zM371 1380q0 85 54 128.5t132 43.5 q74 0 128 -43.5t54 -128.5q0 -84 -54.5 -129t-127.5 -45q-77 0 -131.5 45t-54.5 129zM485 1378q0 -33 20.5 -51t49.5 -18t49.5 18t20.5 51q0 34 -20.5 52t-49.5 18t-49.5 -18t-20.5 -52z" />
<glyph unicode="&#xe6;" horiz-adv-x="2019" d="M145 299q0 78 25.5 139.5t67 100t99 63.5t116.5 35t125 10q44 0 99 -5t87 -10l33 -5v86q0 74 -47 113.5t-138 39.5q-149 0 -278 -121l-135 177q8 7 22 19t59.5 42.5t92.5 53.5t116 42t134 19q214 0 342 -152q153 150 356 150q163 0 277 -76.5t168.5 -207t54.5 -304.5 l-4 -68h-746q22 -112 91.5 -172.5t180.5 -60.5q94 0 172.5 40t131.5 101l149 -164q-61 -65 -119 -107t-149 -71t-203 -29q-255 0 -371 144q-62 -62 -169.5 -104t-243.5 -42q-107 0 -196 38.5t-144.5 113.5t-55.5 172zM399 322q0 -54 41 -87.5t115 -33.5q71 0 136 22.5 t108 59.5v139q-96 22 -176 22q-224 0 -224 -122zM1075 659h465q-21 93 -80 150t-145 57q-94 0 -156.5 -53t-83.5 -154z" />
<glyph unicode="&#xe7;" horiz-adv-x="1116" d="M63 539q0 113 30.5 206.5t82.5 158t122 109t148 65t162 20.5q255 0 426 -176l-127 -172q-77 59 -144.5 87.5t-154.5 28.5q-132 0 -203 -83.5t-71 -243.5q0 -158 79 -245t212 -87q140 0 286 135l140 -170q-140 -174 -363 -192v-39q63 -12 96 -50.5t33 -93.5q0 -43 -23 -79 t-55 -58t-75 -39t-75 -25t-63 -12l-49 121q71 32 99 51t28 37q0 19 -22 19q-7 0 -16 -3t-14 -5l-5 -3l-45 66v119q-197 34 -318 174t-121 379z" />
<glyph unicode="&#xe8;" horiz-adv-x="1183" d="M63 530q0 136 43 246t116.5 179.5t167 106t198.5 36.5q120 0 215 -47t151.5 -125.5t85.5 -173.5t29 -199l-6 -113h-725q19 -111 88.5 -172t181.5 -61q94 0 173 40t132 101l150 -164q-94 -101 -201 -155t-270 -54q-78 0 -153.5 21.5t-143.5 67t-119.5 109.5t-82 156.5 t-30.5 200.5zM193 1540h352l192 -328h-243zM342 641h465q-12 102 -72.5 163.5t-146.5 61.5q-98 0 -165.5 -61t-80.5 -164z" />
<glyph unicode="&#xe9;" horiz-adv-x="1183" d="M63 530q0 136 43 246t116.5 179.5t167 106t198.5 36.5q120 0 215 -47t151.5 -125.5t85.5 -173.5t29 -199l-6 -113h-725q19 -111 88.5 -172t181.5 -61q94 0 173 40t132 101l150 -164q-94 -101 -201 -155t-270 -54q-78 0 -153.5 21.5t-143.5 67t-119.5 109.5t-82 156.5 t-30.5 200.5zM342 641h465q-12 102 -72.5 163.5t-146.5 61.5q-98 0 -165.5 -61t-80.5 -164zM446 1212l232 328h344l-334 -328h-242z" />
<glyph unicode="&#xea;" horiz-adv-x="1183" d="M63 530q0 136 43 246t116.5 179.5t167 106t198.5 36.5q120 0 215 -47t151.5 -125.5t85.5 -173.5t29 -199l-6 -113h-725q19 -111 88.5 -172t181.5 -61q94 0 173 40t132 101l150 -164q-94 -101 -201 -155t-270 -54q-78 0 -153.5 21.5t-143.5 67t-119.5 109.5t-82 156.5 t-30.5 200.5zM219 1227l295 313h162l289 -313h-265l-106 112q-16 -18 -52.5 -56t-52.5 -56h-270zM342 641h465q-12 102 -72.5 163.5t-146.5 61.5q-98 0 -165.5 -61t-80.5 -164z" />
<glyph unicode="&#xeb;" horiz-adv-x="1183" d="M63 530q0 136 43 246t116.5 179.5t167 106t198.5 36.5q120 0 215 -47t151.5 -125.5t85.5 -173.5t29 -199l-6 -113h-725q19 -111 88.5 -172t181.5 -61q94 0 173 40t132 101l150 -164q-94 -101 -201 -155t-270 -54q-78 0 -153.5 21.5t-143.5 67t-119.5 109.5t-82 156.5 t-30.5 200.5zM254 1403q0 73 43.5 111t103.5 38q61 0 105.5 -38t44.5 -111t-44.5 -112.5t-105.5 -39.5q-59 0 -103 39.5t-44 112.5zM342 641h465q-12 102 -72.5 163.5t-146.5 61.5q-98 0 -165.5 -61t-80.5 -164zM635 1403q0 73 43.5 111t103.5 38q61 0 104.5 -38t43.5 -111 t-43.5 -112.5t-104.5 -39.5q-59 0 -103 39.5t-44 112.5z" />
<glyph unicode="&#xec;" horiz-adv-x="499" d="M-154 1540h353l192 -328h-244zM113 0v1073h260v-1073h-260z" />
<glyph unicode="&#xed;" horiz-adv-x="499" d="M106 1212l232 328h344l-334 -328h-242zM113 0v1073h260v-1073h-260z" />
<glyph unicode="&#xee;" horiz-adv-x="499" d="M-123 1227l295 313h162l289 -313h-265l-106 112q-16 -18 -52.5 -56t-52.5 -56h-270zM113 0v1073h260v-1073h-260z" />
<glyph unicode="&#xef;" horiz-adv-x="499" d="M-88 1403q0 73 43.5 111t103.5 38q61 0 105.5 -38t44.5 -111t-44.5 -112.5t-105.5 -39.5q-59 0 -103 39.5t-44 112.5zM113 0v1073h260v-1073h-260zM293 1403q0 73 43.5 111t103.5 38q61 0 104.5 -38t43.5 -111t-43.5 -112.5t-104.5 -39.5q-59 0 -103 39.5t-44 112.5z" />
<glyph unicode="&#xf0;" horiz-adv-x="1275" d="M76 539q0 112 31.5 206t84 158t122.5 109t145.5 65.5t154.5 20.5q58 0 127 -15q-51 75 -108 134l-438 -103v178l280 66q-126 96 -258 168h365q70 -45 145 -107l326 78v-180l-172 -41q284 -314 284 -731q0 -167 -61 -294.5t-184.5 -201.5t-294.5 -74q-105 0 -201 34.5 t-175 101.5t-126 177.5t-47 250.5zM352 539q0 -160 69 -246t197 -86q134 0 206.5 83.5t72.5 248.5q0 160 -70.5 243.5t-201.5 83.5q-130 0 -201.5 -83.5t-71.5 -243.5z" />
<glyph unicode="&#xf1;" d="M143 0v1073h199l33 -108q63 62 145 97.5t170 35.5q174 0 278.5 -97.5t104.5 -279.5v-721h-262v694q0 95 -34 133.5t-103 38.5q-155 0 -271 -176v-690h-260zM217 1249q6 141 82.5 212t175.5 71q70 0 159 -34t124 -34q36 0 61 20.5t29 55.5h182q-4 -141 -73.5 -217 t-172.5 -76q-56 0 -104.5 19t-90.5 38t-81 19q-42 0 -69.5 -21t-39.5 -53h-182z" />
<glyph unicode="&#xf2;" horiz-adv-x="1284" d="M76 537q0 112 31 206t84 158.5t123.5 109t149 65t161.5 20.5t161.5 -20.5t149 -65t123.5 -109t84 -158.5t31 -206q0 -113 -31 -206.5t-84 -158t-123.5 -109.5t-149 -65.5t-161.5 -20.5t-161.5 20.5t-149 65.5t-123.5 109.5t-84 158t-31 206.5zM201 1540h352l192 -328 h-243zM352 537q0 -155 72 -242.5t201 -87.5q130 0 201 87t71 243t-71 242.5t-201 86.5q-129 0 -201 -87t-72 -242z" />
<glyph unicode="&#xf3;" horiz-adv-x="1284" d="M76 537q0 -113 31 -206.5t84 -158t123.5 -109.5t149 -65.5t161.5 -20.5t161.5 20.5t149 65.5t123.5 109.5t84 158t31 206.5q0 112 -31 206t-84 158.5t-123.5 109t-149 65t-161.5 20.5t-161.5 -20.5t-149 -65t-123.5 -109t-84 -158.5t-31 -206zM352 537q0 155 72 242 t201 87q130 0 201 -86.5t71 -242.5t-71 -243t-201 -87q-129 0 -201 87.5t-72 242.5zM489 1212l232 328h344l-334 -328h-242z" />
<glyph unicode="&#xf4;" horiz-adv-x="1284" d="M76 537q0 -113 31 -206.5t84 -158t123.5 -109.5t149 -65.5t161.5 -20.5t161.5 20.5t149 65.5t123.5 109.5t84 158t31 206.5q0 112 -31 206t-84 158.5t-123.5 109t-149 65t-161.5 20.5t-161.5 -20.5t-149 -65t-123.5 -109t-84 -158.5t-31 -206zM256 1227l295 313h162 l288 -313h-264l-106 112q-16 -18 -52.5 -56t-52.5 -56h-270zM352 537q0 155 72 242t201 87q130 0 201 -86.5t71 -242.5t-71 -243t-201 -87q-129 0 -201 87.5t-72 242.5z" />
<glyph unicode="&#xf5;" horiz-adv-x="1284" d="M76 537q0 -113 31 -206.5t84 -158t123.5 -109.5t149 -65.5t161.5 -20.5t161.5 20.5t149 65.5t123.5 109.5t84 158t31 206.5q0 112 -31 206t-84 158.5t-123.5 109t-149 65t-161.5 20.5t-161.5 -20.5t-149 -65t-123.5 -109t-84 -158.5t-31 -206zM236 1249q6 141 82.5 212 t175.5 71q70 0 158.5 -34t123.5 -34q36 0 61 20.5t29 55.5h183q-4 -141 -73.5 -217t-172.5 -76q-56 0 -105 19t-91 38t-81 19q-80 0 -108 -74h-182zM352 537q0 155 72 242t201 87q130 0 201 -86.5t71 -242.5t-71 -243t-201 -87q-129 0 -201 87.5t-72 242.5z" />
<glyph unicode="&#xf6;" horiz-adv-x="1284" d="M76 537q0 -113 31 -206.5t84 -158t123.5 -109.5t149 -65.5t161.5 -20.5t161.5 20.5t149 65.5t123.5 109.5t84 158t31 206.5q0 112 -31 206t-84 158.5t-123.5 109t-149 65t-161.5 20.5t-161.5 -20.5t-149 -65t-123.5 -109t-84 -158.5t-31 -206zM293 1403q0 73 43.5 111 t103.5 38q61 0 105.5 -38t44.5 -111t-44.5 -112.5t-105.5 -39.5q-59 0 -103 39.5t-44 112.5zM352 537q0 155 72 242t201 87q130 0 201 -86.5t71 -242.5t-71 -243t-201 -87q-129 0 -201 87.5t-72 242.5zM674 1403q0 73 43.5 111t103.5 38q61 0 104.5 -38t43.5 -111 t-43.5 -112.5t-104.5 -39.5q-59 0 -103 39.5t-44 112.5z" />
<glyph unicode="&#xf7;" horiz-adv-x="1001" d="M45 420h956v231h-956v-231zM348 147q0 84 48.5 127t119.5 43q72 0 120 -43t48 -127t-48.5 -128t-119.5 -44q-70 0 -119 44t-49 128zM348 926q0 83 49 126.5t119 43.5q71 0 119.5 -43.5t48.5 -126.5q0 -85 -48 -127.5t-120 -42.5q-71 0 -119.5 42.5t-48.5 127.5z" />
<glyph unicode="&#xf8;" horiz-adv-x="1284" d="M76 539q0 112 31 206t84 158t123.5 108t149 64.5t161.5 20.5q67 0 141 -15l94 183h277l-154 -287q191 -158 191 -438q0 -113 -31 -207t-84 -158.5t-123.5 -109.5t-149 -66t-161.5 -21q-89 0 -158 19l-113 -209h-276l170 324q-77 73 -124.5 184.5t-47.5 243.5zM352 539 q0 -83 27 -177l280 517q-12 2 -34 2q-129 0 -201 -90t-72 -252zM569 197q32 -4 56 -4q130 3 201 93t71 253q0 125 -37 198z" />
<glyph unicode="&#xf9;" d="M143 338v735h260v-692q0 -90 46 -132t120 -42q44 0 87.5 13t87.5 49t67 91v713h262v-1073h-180l-51 111q-125 -136 -291 -136q-85 0 -158 22t-129.5 65.5t-88.5 114t-32 161.5zM229 1540h353l192 -328h-244z" />
<glyph unicode="&#xfa;" d="M143 338v735h260v-692q0 -90 46 -132t120 -42q44 0 87.5 13t87.5 49t67 91v713h262v-1073h-180l-51 111q-125 -136 -291 -136q-85 0 -158 22t-129.5 65.5t-88.5 114t-32 161.5zM465 1212l231 328h344l-333 -328h-242z" />
<glyph unicode="&#xfb;" d="M143 338v735h260v-692q0 -90 46 -132t120 -42q44 0 87.5 13t87.5 49t67 91v713h262v-1073h-180l-51 111q-125 -136 -291 -136q-85 0 -158 22t-129.5 65.5t-88.5 114t-32 161.5zM252 1227l295 313h162l288 -313h-264l-106 112q-16 -18 -52.5 -56t-52.5 -56h-270z" />
<glyph unicode="&#xfc;" d="M143 338v735h260v-692q0 -90 46 -132t120 -42q44 0 87.5 13t87.5 49t67 91v713h262v-1073h-180l-51 111q-125 -136 -291 -136q-85 0 -158 22t-129.5 65.5t-88.5 114t-32 161.5zM287 1403q0 73 43.5 111t103.5 38q61 0 105.5 -38t44.5 -111t-44.5 -112.5t-105.5 -39.5 q-59 0 -103 39.5t-44 112.5zM668 1403q0 73 43.5 111t103.5 38q61 0 104.5 -38t43.5 -111t-43.5 -112.5t-104.5 -39.5q-59 0 -103 39.5t-44 112.5z" />
<glyph unicode="&#xfd;" horiz-adv-x="1214" d="M39 1073h297l268 -751l246 751h297l-416 -1122q-49 -133 -155 -211t-257 -78q-33 0 -75 9t-68 17l-26 9l55 215q72 -27 117 -27q91 0 124 88l21 54zM459 1212l231 328h344l-334 -328h-241z" />
<glyph unicode="&#xfe;" horiz-adv-x="1226" d="M123 -367v1883h264v-453q93 35 209 35q76 0 149 -20.5t141.5 -66t120 -109.5t82.5 -158.5t31 -206.5t-31 -206.5t-82.5 -159t-120 -109.5t-141.5 -66t-149 -21q-116 0 -209 35v-377h-264zM387 246q105 -39 184 -39q129 0 200 87t71 243t-71 242.5t-200 86.5 q-96 0 -184 -41v-579z" />
<glyph unicode="&#xff;" horiz-adv-x="1214" d="M39 1073h297l268 -751l246 751h297l-416 -1122q-49 -133 -155 -211t-257 -78q-33 0 -75 9t-68 17l-26 9l55 215q72 -27 117 -27q91 0 124 88l21 54zM268 1403q0 73 44 111t104 38q61 0 105 -38t44 -111t-44 -112.5t-105 -39.5q-60 0 -104 39.5t-44 112.5zM649 1403 q0 73 44 111t104 38q61 0 104 -38t43 -111t-43 -112.5t-104 -39.5q-60 0 -104 39.5t-44 112.5z" />
<glyph unicode="&#x152;" horiz-adv-x="1910" d="M158 719q0 145 40 265.5t108 202t158 138.5t188.5 83t201.5 26h860v-242h-612v-344h536v-242h-536v-364h612v-242h-860q-103 0 -201.5 26.5t-188.5 84t-158 140t-108 203t-40 265.5zM442 719q0 -218 105 -344t278 -137v966q-174 -9 -278.5 -137t-104.5 -348z" />
<glyph unicode="&#x153;" horiz-adv-x="2205" d="M141 539q0 140 46.5 249.5t125 175t174 99t201.5 33.5q133 0 245.5 -58.5t178.5 -167.5q63 106 176.5 166t249.5 60q234 0 365 -157.5t131 -420.5v-76h-750q60 -235 275 -235q83 0 163.5 37.5t143.5 97.5l143 -162q-95 -98 -205 -150.5t-262 -52.5q-124 0 -242 56 t-184 151q-72 -95 -185 -151t-243 -56q-84 0 -162.5 21t-148.5 66t-122.5 109.5t-83 158.5t-30.5 207zM412 539q0 -160 69.5 -246t198.5 -86q137 0 211 84t74 248q0 160 -72.5 243.5t-204.5 83.5q-133 0 -204.5 -83.5t-71.5 -243.5zM1284 657h479q-23 108 -79.5 158.5 t-151.5 50.5q-101 0 -160 -49.5t-88 -159.5z" />
<glyph unicode="&#x178;" horiz-adv-x="1290" d="M2 1434h315l324 -598l324 598h297l-494 -861v-573h-272v575zM307 1763q0 73 44 111.5t104 38.5q61 0 105 -38.5t44 -111.5t-44 -112t-105 -39q-60 0 -104 39t-44 112zM688 1763q0 73 44 111.5t104 38.5q61 0 104 -38.5t43 -111.5t-43 -112t-104 -39q-60 0 -104 39 t-44 112z" />
<glyph unicode="&#x2c6;" horiz-adv-x="614" d="M-74 1227l295 313h162l289 -313h-264l-107 112q-16 -18 -52 -56t-52 -56h-271z" />
<glyph unicode="&#x2dc;" horiz-adv-x="864" d="M14 1249q6 141 82.5 212t175.5 71q70 0 159 -34t124 -34q36 0 61 20.5t29 55.5h182q-4 -141 -73 -217t-172 -76q-56 0 -105 19t-91 38t-81 19q-80 0 -108 -74h-183z" />
<glyph unicode="&#x2000;" horiz-adv-x="956" />
<glyph unicode="&#x2001;" horiz-adv-x="1913" />
<glyph unicode="&#x2002;" horiz-adv-x="956" />
<glyph unicode="&#x2003;" horiz-adv-x="1913" />
<glyph unicode="&#x2004;" horiz-adv-x="637" />
<glyph unicode="&#x2005;" horiz-adv-x="478" />
<glyph unicode="&#x2006;" horiz-adv-x="318" />
<glyph unicode="&#x2007;" horiz-adv-x="318" />
<glyph unicode="&#x2008;" horiz-adv-x="239" />
<glyph unicode="&#x2009;" horiz-adv-x="382" />
<glyph unicode="&#x200a;" horiz-adv-x="106" />
<glyph unicode="&#x2010;" horiz-adv-x="925" d="M139 481v238h623v-238h-623z" />
<glyph unicode="&#x2011;" horiz-adv-x="925" d="M139 481v238h623v-238h-623z" />
<glyph unicode="&#x2012;" horiz-adv-x="925" d="M139 481v238h623v-238h-623z" />
<glyph unicode="&#x2013;" horiz-adv-x="1208" d="M127 483v228h928v-228h-928z" />
<glyph unicode="&#x2014;" horiz-adv-x="1837" d="M133 483v228h1528v-228h-1528z" />
<glyph unicode="&#x2018;" horiz-adv-x="563" d="M104 1094q0 94 59.5 183t174.5 163l115 -92l-7 -8q-8 -7 -17 -15t-21 -20.5t-22.5 -24t-21 -24.5t-16.5 -23q40 -16 67 -56t27 -98q0 -81 -47 -123.5t-114 -42.5q-73 0 -125 50t-52 131z" />
<glyph unicode="&#x2019;" horiz-adv-x="563" d="M92 1004q12 9 50 47.5t57 66.5q-40 16 -67.5 56t-27.5 98q0 81 47.5 123.5t114.5 42.5q73 0 124.5 -50t51.5 -131q0 -94 -59 -183t-174 -163z" />
<glyph unicode="&#x201a;" horiz-adv-x="563" d="M92 -125q11 8 49.5 47.5t57.5 67.5q-40 17 -67.5 56t-27.5 97q0 81 47.5 123.5t114.5 42.5q73 0 124.5 -49.5t51.5 -130.5q0 -94 -59 -183t-174 -163z" />
<glyph unicode="&#x201c;" horiz-adv-x="1013" d="M121 1090q0 94 59 183t174 163l115 -93l-7 -7q-8 -8 -16.5 -16t-20.5 -20t-22.5 -23.5t-21 -24.5t-16.5 -23q40 -16 67 -56t27 -98q0 -81 -47.5 -123.5t-114.5 -42.5q-73 0 -124.5 50t-51.5 131zM528 1090q0 94 59.5 183t174.5 163l115 -93l-10 -9q-10 -10 -22 -21.5 t-26 -26t-26.5 -30t-20.5 -27.5q40 -16 67 -56t27 -98q0 -81 -47 -123.5t-114 -42.5q-73 0 -125 50t-52 131z" />
<glyph unicode="&#x201d;" horiz-adv-x="1013" d="M109 1004q11 8 49 47t57 67q-40 16 -67 56t-27 98q0 81 47.5 123.5t114.5 42.5q73 0 124.5 -50t51.5 -131q0 -94 -59.5 -183t-174.5 -163zM516 1004q12 9 50 47.5t57 66.5q-40 16 -67.5 56t-27.5 98q0 81 47.5 123.5t114.5 42.5q73 0 124.5 -50t51.5 -131q0 -94 -59 -183 t-174 -163z" />
<glyph unicode="&#x201e;" horiz-adv-x="1013" d="M109 -125q11 8 49 47.5t57 67.5q-40 16 -67 55.5t-27 97.5q0 81 47.5 123.5t114.5 42.5q73 0 124.5 -49.5t51.5 -130.5q0 -94 -59.5 -183t-174.5 -163zM516 -125q11 8 49.5 47.5t57.5 67.5q-40 17 -67.5 56t-27.5 97q0 81 47.5 123.5t114.5 42.5q73 0 124.5 -49.5 t51.5 -130.5q0 -94 -59 -183t-174 -163z" />
<glyph unicode="&#x2022;" horiz-adv-x="534" d="M104 594q0 79 45 119.5t109 40.5q65 0 111.5 -40.5t46.5 -119.5q0 -77 -47 -117.5t-111 -40.5t-109 40.5t-45 117.5z" />
<glyph unicode="&#x2026;" horiz-adv-x="1634" d="M129 150q0 84 49 128t121 44t121 -44t49 -128q0 -86 -49 -130.5t-121 -44.5t-121 44.5t-49 130.5zM625 150q0 84 49.5 128t120.5 44q72 0 121 -44t49 -128q0 -86 -49 -130.5t-121 -44.5q-71 0 -120.5 45t-49.5 130zM1120 150q0 84 49.5 128t120.5 44q72 0 122 -44 t50 -128q0 -85 -50 -130t-122 -45q-71 0 -120.5 45t-49.5 130z" />
<glyph unicode="&#x202f;" horiz-adv-x="382" />
<glyph unicode="&#x2039;" horiz-adv-x="727" d="M41 696l446 549l179 -135l-344 -414l342 -409l-175 -137z" />
<glyph unicode="&#x203a;" horiz-adv-x="727" d="M61 1110l179 135l446 -549l-448 -546l-175 137l343 409z" />
<glyph unicode="&#x205f;" horiz-adv-x="478" />
<glyph unicode="&#x20ac;" horiz-adv-x="1404" d="M-2 418v239h137v37q0 43 2 76h-139v240h184q45 145 139 243.5t210.5 141.5t254.5 43q279 0 502 -201l-147 -197q-86 77 -165.5 117.5t-182.5 40.5q-240 0 -326 -188h643l-92 -240h-596v-113h561l-80 -239h-426q89 -201 309 -201q109 0 190.5 40t166.5 118l149 -207 q-39 -32 -67.5 -52.5t-79 -49.5t-99 -46t-117 -30t-143.5 -13q-211 0 -374 110.5t-234 330.5h-180z" />
<glyph unicode="&#x2122;" horiz-adv-x="1800" d="M72 1210v195h682v-195h-240v-651h-207v651h-235zM831 559v846h181l262 -528l260 528h178v-846h-207v361l-182 -361h-113l-178 359v-359h-201z" />
<glyph unicode="&#xe000;" horiz-adv-x="1075" d="M0 0v1075h1075v-1075h-1075z" />
<glyph unicode="&#xfb01;" horiz-adv-x="1331" d="M59 856v217h146v160q0 156 94.5 244t267.5 88q49 0 96.5 -7.5t70.5 -15.5l22 -8l-51 -201q-72 15 -121 15q-50 0 -83.5 -26.5t-33.5 -74.5v-174h244v-217h-244v-856h-262v856h-146zM887 1403q0 78 45.5 120t109.5 42q67 0 113.5 -41.5t46.5 -120.5q0 -77 -46.5 -118.5 t-113.5 -41.5q-64 0 -109.5 41.5t-45.5 118.5zM913 0v1073h263v-1073h-263z" />
<glyph unicode="&#xfb02;" horiz-adv-x="1337" d="M59 856v217h146v160q0 156 94.5 244t267.5 88q49 0 96.5 -7.5t70.5 -15.5l22 -8l-51 -201q-72 15 -121 15q-50 0 -83.5 -26.5t-33.5 -74.5v-174h244v-217h-244v-856h-262v856h-146zM926 0v1538h264v-1538h-264z" />
</font>
</defs>
</svg>
